<svg xmlns="http://www.w3.org/2000/svg" viewBox="0 0 500 500"><g id="freepik--Table--inject-5"><path d="M465.37,471.47c0,.15-96.43.26-215.36.26s-215.38-.11-215.38-.26,96.41-.26,215.38-.26S465.37,471.33,465.37,471.47Z" style="fill:#263238"></path></g><g id="freepik--Flasks--inject-5"><path d="M121.84,168.43l15.41-44-22.41-7.85-15.41,44A31.48,31.48,0,0,0,70.2,181.36c-5.75,16.38,3.37,34.49,20.36,40.44s35.41-2.51,41.15-18.89A31.49,31.49,0,0,0,121.84,168.43Z" style="fill:#fff"></path><path d="M121.84,168.43l.59.5c.37.35,1,.79,1.63,1.5a31.74,31.74,0,0,1,5.23,6.76c.48.81.91,1.69,1.37,2.62s.87,1.94,1.2,3a29.16,29.16,0,0,1,1.56,7.21,30.8,30.8,0,0,1-10,25.62,32.28,32.28,0,0,1-9.63,5.93,32.82,32.82,0,0,1-11.9,2.3,34,34,0,0,1-24-9.69,32.59,32.59,0,0,1-7.69-11.78A31.88,31.88,0,0,1,68.43,188c.14-1.24.41-2.46.64-3.69.38-1.2.65-2.43,1.12-3.61a29.4,29.4,0,0,1,3.52-6.73,29,29,0,0,1,5.14-5.73A31.18,31.18,0,0,1,85.14,164a34.41,34.41,0,0,1,7-2.65,37,37,0,0,1,7.29-1l-.24.18c5.57-15.86,10.78-30.69,15.45-44l.07-.21.21.07,22.4,7.88.18.07-.06.18-11.35,32.1L123,165.37c-.36,1-.63,1.75-.82,2.28s-.3.78-.3.78.07-.25.24-.77l.78-2.27c.69-2,1.71-5,3-8.75l11.2-32.25.12.24-22.43-7.82.29-.14c-4.65,13.29-9.84,28.13-15.38,44l-.06.17h-.18a36.59,36.59,0,0,0-7.17,1,34.24,34.24,0,0,0-6.89,2.61,30.45,30.45,0,0,0-6.18,4.19,28.26,28.26,0,0,0-5,5.63,29,29,0,0,0-3.47,6.62c-.46,1.15-.72,2.36-1.1,3.54-.22,1.21-.49,2.41-.62,3.63a31.26,31.26,0,0,0,1.78,14.21,32,32,0,0,0,7.56,11.61,33.56,33.56,0,0,0,23.6,9.59,32.61,32.61,0,0,0,11.74-2.25,32,32,0,0,0,9.53-5.83,30.5,30.5,0,0,0,8.47-32.45c-.33-1.08-.79-2-1.17-3s-.88-1.8-1.34-2.6a33.35,33.35,0,0,0-5.13-6.8c-.66-.72-1.26-1.19-1.61-1.55S121.84,168.43,121.84,168.43Z" style="fill:#263238"></path><path d="M118,170.2,132.35,129l-16.62-5.81-14.11,41.3a26.56,26.56,0,0,0-27.2,17.9c-5,14.22,2.93,29.92,17.67,35.09s30.72-2.18,35.7-16.39C131.61,190.15,126.56,177.42,118,170.2Z" style="fill:#e0e0e0"></path><path d="M127.79,201.05c-.34-1.82-1.07-2.56-2.54-3.72a24.85,24.85,0,0,0-8.77-4.45c-4.31-1.19-8.89-1.21-13.11-2.65-6.32-2.14-11.15-7.18-16.94-10.49-2.39-1.37-7-2.77-9.67-2.37a16.78,16.78,0,0,0-2.59,7.39l22.76,14,17,.89,8,2.79Z" style="fill:#0D6EFD"></path><g style="opacity:0.30000000000000004"><path d="M127.79,201.05c-.34-1.82-1.07-2.56-2.54-3.72a24.85,24.85,0,0,0-8.77-4.45c-4.31-1.19-8.89-1.21-13.11-2.65-6.32-2.14-11.15-7.18-16.94-10.49-2.39-1.37-7-2.77-9.67-2.37a16.78,16.78,0,0,0-2.59,7.39l22.76,14,17,.89,8,2.79Z" style="fill:#fff"></path></g><path d="M74.42,182.35c-5,14.22,2.93,29.92,17.67,35.09s30.72-2.18,35.7-16.39c0,0-4.18-3.55-12.21-5.33-3.19-.71-14.65-1.24-20.68-2.73-16.3-4-20.48-10.64-20.48-10.64" style="fill:#0D6EFD"></path><rect x="121.71" y="107.1" width="7.13" height="31.24" rx="2.96" transform="translate(-31.97 200.37) rotate(-70.69)" style="fill:#fff"></rect><path d="M136,130.27s.25.07.72.1a2.93,2.93,0,0,0,1.91-.56,2.83,2.83,0,0,0,.91-1.11c.19-.48.39-1.09.57-1.67a2.81,2.81,0,0,0-1.8-3.31l-23.93-8.3a2.73,2.73,0,0,0-3,.87,5,5,0,0,0-.7,1.54,3.19,3.19,0,0,0-.27,1.61,2.75,2.75,0,0,0,1.93,2.27l3.1,1.1,10.73,3.82,7.22,2.61,2,.74a3,3,0,0,1,.67.29,3.65,3.65,0,0,1-.7-.19l-2-.65L126.08,127l-10.76-3.71-3.11-1.08a3.24,3.24,0,0,1-2.27-2.68,3.67,3.67,0,0,1,.28-1.84l.3-.85a3.22,3.22,0,0,1,4.07-1.88l23.88,8.45a3.1,3.1,0,0,1,2,3.72c-.21.64-.4,1.17-.63,1.71a3.08,3.08,0,0,1-1,1.17,3,3,0,0,1-2,.49A1.93,1.93,0,0,1,136,130.27Z" style="fill:#263238"></path><g style="opacity:0.2"><path d="M94,209.19c-7.12-4.23-12.56-11.47-14-19.64s1.53-17.1,7.93-22.37l-.51.09a26.94,26.94,0,0,0-13,15.08c-5,14.22,2.93,29.92,17.67,35.09a28.65,28.65,0,0,0,22.69-1.51,28.2,28.2,0,0,0,3.22-2.42A36.8,36.8,0,0,1,94,209.19Z"></path></g><g style="opacity:0.30000000000000004"><path d="M124.15,126.1l-15.84,41.57s9,22.37-1.93,35.83l11.16,4.58a32,32,0,0,0,5.15-20.15,38.23,38.23,0,0,0-6.55-18.3l14.53-41.26Z" style="fill:#fff"></path></g><path d="M74.87,201.19a1.51,1.51,0,0,1-.19-.38c-.11-.26-.28-.64-.44-1.14a24.49,24.49,0,0,1-1.08-4.36A27.06,27.06,0,0,1,84,169.17a25.08,25.08,0,0,1,3.84-2.33c.47-.24.86-.38,1.12-.49a1.5,1.5,0,0,1,.4-.14,11.92,11.92,0,0,1-1.42.81,29.51,29.51,0,0,0-3.72,2.44,27.64,27.64,0,0,0-10.67,25.8,29,29,0,0,0,.91,4.35A13.26,13.26,0,0,1,74.87,201.19Z" style="fill:#263238"></path><path d="M128.94,195.78a5.55,5.55,0,0,1-.09,1.33,23.43,23.43,0,0,1-.79,3.56,25.91,25.91,0,0,1-16,16.9,23.85,23.85,0,0,1-3.52,1,5.6,5.6,0,0,1-1.32.17c0-.1,1.87-.38,4.71-1.49a26.82,26.82,0,0,0,15.79-16.67C128.67,197.67,128.84,195.76,128.94,195.78Z" style="fill:#263238"></path><path d="M103.76,159.09c-.13-.05,2.15-6.92,5.11-15.36s5.46-15.23,5.59-15.18-2.15,6.92-5.1,15.36S103.9,159.14,103.76,159.09Z" style="fill:#263238"></path><g style="opacity:0.2"><path d="M91.63,199a2,2,0,1,1-1.22-2.54A2,2,0,0,1,91.63,199Z"></path></g><g style="opacity:0.2"><path d="M104.1,203.38a2,2,0,1,1-1.22-2.54A2,2,0,0,1,104.1,203.38Z"></path></g><g style="opacity:0.2"><path d="M92.52,204.11a1,1,0,1,1-.61-1.27A1,1,0,0,1,92.52,204.11Z"></path></g><path d="M359.79,307.63c0,.4-.72,15.79-1.53,31.48-.46,9-.93,18.12-1.27,24.55-.24,4.57,3.42,8.33,7.54,7.75L417,364.06c4.1-.58,6.58-5.15,5.14-9.46l-17.72-53.22Z" style="fill:#fff"></path><path d="M359.79,307.63l.77-.13,2.31-.34,8.91-1.3,32.58-4.68.17,0,.06.16c3.11,9.33,6.67,20,10.54,31.54,1.93,5.78,3.93,11.8,6,18l.78,2.33a21.82,21.82,0,0,1,.72,2.41,8,8,0,0,1-.67,5,6.63,6.63,0,0,1-3.81,3.42,13.77,13.77,0,0,1-2.55.48l-2.54.36-45.25,6.32-2.6.37a7.31,7.31,0,0,1-2.64,0,6.8,6.8,0,0,1-4.28-2.78,7.13,7.13,0,0,1-1.14-2.27,7.7,7.7,0,0,1-.38-2.46c0-1.64.16-3.21.23-4.77.34-6.24.65-12,.93-17.35,1.14-21,1.78-32.91,1.86-34.33a5.69,5.69,0,0,1,0,.61c0,.42,0,1,0,1.78-.06,1.58-.16,3.88-.27,6.83-.28,6-.69,14.53-1.19,25.13-.26,5.31-.56,11.11-.87,17.35-.07,1.55-.18,3.16-.21,4.75a6.92,6.92,0,0,0,.36,2.33,6.8,6.8,0,0,0,1.08,2.13,6.38,6.38,0,0,0,4,2.59,7,7,0,0,0,2.49,0l2.59-.37L413,364.35l2.54-.35a14.19,14.19,0,0,0,2.45-.46,6.12,6.12,0,0,0,3.52-3.16,7.45,7.45,0,0,0,.62-4.71,19.27,19.27,0,0,0-.7-2.33l-.78-2.34c-2.05-6.19-4.05-12.21-6-18-3.84-11.57-7.37-22.22-10.46-31.56l.22.14L371.93,306l-9,1.2-2.35.31C360.07,307.61,359.79,307.63,359.79,307.63Z" style="fill:#263238"></path><path d="M362.91,309c.08.57-1.34,40.59-2,53.91a3.71,3.71,0,0,0,3.95,4.06l50.87-7.13a3.44,3.44,0,0,0,2.51-4.61l-16.85-51.62Z" style="fill:#e0e0e0"></path><g style="opacity:0.30000000000000004"><path d="M358.65,340a21.63,21.63,0,0,0,16.85-.08c9.31-3.85,21.51-17.08,37.76-11.91l-2.15-6.46a15.37,15.37,0,0,0-13.92-3.42c-8.48,2-14.48,15.46-21.85,16.73s-16-6.95-16-6.95Z" style="fill:#fff"></path></g><path d="M413.85,341.85l4.35,13.33a3.44,3.44,0,0,1-2.51,4.61l-50.87,7.13a3.71,3.71,0,0,1-3.95-4.06c.18-3.44.41-8.66.65-14.51a90.48,90.48,0,0,0,21.49-.79c11.14-1.86,29.62-9.45,29.62-9.45Z" style="fill:#0D6EFD"></path><rect x="356.85" y="301.64" width="49.89" height="4.45" rx="1.49" transform="translate(-38.5 55.97) rotate(-7.98)" style="fill:#fff"></rect><path d="M405.33,302.81a1.78,1.78,0,0,0,.89-.54,1.48,1.48,0,0,0,.3-1.18c-.1-.5-.14-1.13-.31-1.73a1.44,1.44,0,0,0-1.73-.8l-2.63.39-6.41.94-37.14,5.29a1.21,1.21,0,0,0-.9.61,1.56,1.56,0,0,0-.1,1.16c.07.42.11.95.2,1.29a1.25,1.25,0,0,0,.75.76,1.12,1.12,0,0,0,.54.07l.65-.09,1.31-.18,2.59-.36,9.87-1.37,16.71-2.29,11.27-1.49,3.07-.38.8-.09a.79.79,0,0,1,.27,0l-.27.06-.79.14-3,.48L390,305.15l-16.7,2.4-9.86,1.39-2.58.37-1.31.18-.67.09a1.67,1.67,0,0,1-.77-.09A1.75,1.75,0,0,1,357,308.4c-.13-.52-.14-.91-.22-1.38a3.82,3.82,0,0,1-.07-.72,1.73,1.73,0,0,1,1.5-1.64l37.17-5.13,6.42-.87,2.63-.34a1.79,1.79,0,0,1,1.21.13,1.61,1.61,0,0,1,.75.84,16.93,16.93,0,0,1,.27,1.78,1.55,1.55,0,0,1-.37,1.26A1.33,1.33,0,0,1,405.33,302.81Z" style="fill:#263238"></path><path d="M361.52,348.35s4.16-1.8,15-4,35.84-6.92,35.84-6.92l.23.71s-18.42,7.74-31.5,9.74S361.52,348.35,361.52,348.35Z" style="fill:#0D6EFD"></path><g style="opacity:0.30000000000000004"><path d="M361.52,348.35s4.16-1.8,15-4,35.84-6.92,35.84-6.92l.23.71s-18.42,7.74-31.5,9.74S361.52,348.35,361.52,348.35Z" style="fill:#fff"></path></g><path d="M391.9,327.26c0,.14-4.61.9-10.33,1.71a102.77,102.77,0,0,1-10.41,1.19c0-.14,4.61-.91,10.34-1.71A102.43,102.43,0,0,1,391.9,327.26Z" style="fill:#263238"></path><path d="M393.79,340.75a101.77,101.77,0,0,1-10.33,1.71c-5.73.81-10.38,1.34-10.4,1.2s4.6-.91,10.33-1.71S393.77,340.61,393.79,340.75Z" style="fill:#263238"></path><path d="M395.83,355.33c0,.14-4.6.91-10.33,1.71s-10.38,1.34-10.4,1.2a104,104,0,0,1,10.33-1.72A102.75,102.75,0,0,1,395.83,355.33Z" style="fill:#263238"></path><path d="M390.14,314.74a103.33,103.33,0,0,1-10.33,1.72c-5.72.8-10.38,1.33-10.4,1.19s4.6-.91,10.33-1.71S390.12,314.6,390.14,314.74Z" style="fill:#263238"></path><path d="M382.27,322.27a69.68,69.68,0,0,1-12,1.68,35.79,35.79,0,0,1,6-1.09A35.33,35.33,0,0,1,382.27,322.27Z" style="fill:#263238"></path><path d="M384.07,335.1a69.68,69.68,0,0,1-12,1.68,36.37,36.37,0,0,1,6-1.1A35.88,35.88,0,0,1,384.07,335.1Z" style="fill:#263238"></path><path d="M386,349a69.75,69.75,0,0,1-12,1.68A69.75,69.75,0,0,1,386,349Z" style="fill:#263238"></path><g style="opacity:0.30000000000000004"><path d="M363.14,309l-2.26,54a3.7,3.7,0,0,0,3.95,4l33.88-4.75s-29.3,3.08-32.38-.66S363.14,309,363.14,309Z"></path></g><g style="opacity:0.30000000000000004"><path d="M388.79,305.13l13.55,56.53,12.57-1.51c.43-1.37-15.65-56.49-15.65-56.49Z" style="fill:#fff"></path></g><path d="M408.9,361c0,.15-8.63,1.48-19.31,3s-19.37,2.6-19.39,2.45,8.62-1.47,19.31-3S408.88,360.87,408.9,361Z" style="fill:#263238"></path><g style="opacity:0.2"><path d="M394.42,352.12a1.41,1.41,0,1,1-1.61-1.35A1.49,1.49,0,0,1,394.42,352.12Z"></path></g><g style="opacity:0.2"><path d="M372.15,357.28A1.49,1.49,0,0,1,371,359a1.56,1.56,0,1,1,1.18-1.73Z"></path></g><g style="opacity:0.2"><path d="M403.6,355.66a2.52,2.52,0,1,1-2.86-2.39A2.64,2.64,0,0,1,403.6,355.66Z"></path></g><g style="opacity:0.2"><path d="M389.7,351.84a.85.85,0,1,1-1.67.23.88.88,0,0,1,.7-1A.9.9,0,0,1,389.7,351.84Z"></path></g><g style="opacity:0.2"><path d="M413.16,344.83a.85.85,0,1,1-1-.8A.89.89,0,0,1,413.16,344.83Z"></path></g></g><g id="freepik--Books--inject-5"><path d="M94,438.85H65.27a8.11,8.11,0,0,1-8-8.22h0a8.11,8.11,0,0,1,8-8.23H94Z" style="fill:#0D6EFD"></path><path d="M150,425.14H86V422.4h64a1.34,1.34,0,0,1,1.32,1.37h0A1.35,1.35,0,0,1,150,425.14Z" style="fill:#0D6EFD"></path><path d="M150,438.85H86v-2.72h64a1.32,1.32,0,0,1,1.32,1.34h0A1.34,1.34,0,0,1,150,438.85Z" style="fill:#0D6EFD"></path><path d="M149.38,436.13h-56a5.42,5.42,0,0,1-5.33-5.5h0a5.43,5.43,0,0,1,5.33-5.49h56A14.07,14.07,0,0,0,149.38,436.13Z" style="fill:#ebebeb"></path><g style="opacity:0.30000000000000004"><path d="M88,438.85H65.3a8.12,8.12,0,0,1-8-8.22v0h0a8.11,8.11,0,0,1,8-8.21H88.63C82.84,426,83.28,434.66,88,438.85Z"></path></g><path d="M142.58,431.13s-11.49.1-25.69.1-25.69,0-25.69-.1,11.48-.08,25.69-.08S142.58,431.08,142.58,431.13Z" style="fill:#263238"></path><path d="M147.86,433.58s-11.49.1-25.67.1-25.69,0-25.69-.1,11.48-.1,25.69-.1S147.86,433.53,147.86,433.58Z" style="fill:#263238"></path><path d="M146.3,427.67s-11.48.1-25.67.1-25.69,0-25.69-.1,11.48,0,25.69,0S146.3,427.62,146.3,427.67Z" style="fill:#263238"></path><path d="M85.2,437.7s-5.38.1-12,.1-12,0-12-.1,5.4-.1,12-.1S85.2,437.65,85.2,437.7Z" style="fill:#263238"></path><path d="M85.2,423.77s-5.38.1-12,.1-12,0-12-.1,5.4-.1,12-.1S85.2,423.72,85.2,423.77Z" style="fill:#263238"></path><path d="M89.79,471.58H54.13A10.44,10.44,0,0,1,43.84,461h0A10.45,10.45,0,0,1,54.13,450.4H89.79a1.38,1.38,0,0,1,1.38,1.39v18.39a1.38,1.38,0,0,1-1.36,1.4Z" style="fill:#0D6EFD"></path><path d="M163.26,453.92H80.92V450.4h82.34a1.66,1.66,0,0,1,1.64,1.69h0a1.67,1.67,0,0,1-1.5,1.82Z" style="fill:#0D6EFD"></path><path d="M163.26,471.58H80.92v-3.51h82.34a1.66,1.66,0,0,1,1.64,1.69h0a1.68,1.68,0,0,1-1.5,1.82Z" style="fill:#0D6EFD"></path><path d="M162.46,468.07H90.28a7,7,0,0,1-6.87-7v0h0a7,7,0,0,1,6.87-7.07h72.18A17.93,17.93,0,0,0,162.46,468.07Z" style="fill:#ebebeb"></path><g style="opacity:0.4"><path d="M83.43,471.58H54a10.32,10.32,0,0,1-10.17-10.47h0a10.56,10.56,0,0,1,10.4-10.71h30C76.75,455.08,77.31,466.18,83.43,471.58Z"></path></g><path d="M153.68,461.65s-14.76.1-33.07.1-33.08,0-33.08-.1,14.76-.1,33.08-.1S153.68,461.6,153.68,461.65Z" style="fill:#263238"></path><path d="M160.5,464.79s-14.76.11-33.08.11-33.09,0-33.09-.11,14.77-.1,33.09-.1S160.5,464.74,160.5,464.79Z" style="fill:#263238"></path><path d="M158.49,458.73s-14.77.1-33.07.1-33.09,0-33.09-.1,14.77-.1,33.09-.1S158.49,458.68,158.49,458.73Z" style="fill:#263238"></path><path d="M79.8,470.1s-6.94.1-15.48.1-15.49,0-15.49-.1,6.94-.09,15.49-.09S79.8,470.05,79.8,470.1Z" style="fill:#263238"></path><path d="M79.8,452.16s-6.94.1-15.48.1-15.49,0-15.49-.1,6.94-.1,15.49-.1S79.8,452.11,79.8,452.16Z" style="fill:#263238"></path><path d="M103.45,450.49H70.89A6,6,0,0,1,65,444.41h0a6,6,0,0,1,5.88-6.06h32.56Z" style="fill:#455a64"></path><path d="M162,441.22H95.12v-2.87H162a1.41,1.41,0,0,1,1.38,1.43h0A1.42,1.42,0,0,1,162,441.22Z" style="fill:#455a64"></path><path d="M162,450.49H95.12v-2.87H162a1.42,1.42,0,0,1,1.38,1.43h0A1.42,1.42,0,0,1,162,450.49Z" style="fill:#455a64"></path><path d="M161.37,447.62H100.29a3.17,3.17,0,0,1-3.12-3.21h0a3.16,3.16,0,0,1,3.12-3.19h61.08A4.94,4.94,0,0,0,161.37,447.62Z" style="fill:#fafafa"></path><g style="opacity:0.30000000000000004"><path d="M97.17,450.49H70.84a6,6,0,0,1-5.83-6h0a6,6,0,0,1,5.93-6.11H97.79C91.74,441,92.2,447.38,97.17,450.49Z"></path></g><path d="M154.25,443.92s-12,.08-26.86.08-26.89,0-26.89-.08,12-.1,26.89-.1S154.25,443.85,154.25,443.92Z" style="fill:#263238"></path><path d="M159.78,445.64s-12,.1-26.87.1-26.88,0-26.88-.1,12-.1,26.88-.1S159.78,445.59,159.78,445.64Z" style="fill:#263238"></path><path d="M94.22,449.27s-5.63.1-12.58.1-12.58,0-12.58-.1,5.64-.1,12.58-.1S94.22,449.22,94.22,449.27Z" style="fill:#263238"></path><path d="M94.22,439.78s-5.63.1-12.58.1-12.58,0-12.58-.1,5.64-.1,12.58-.1S94.22,439.73,94.22,439.78Z" style="fill:#263238"></path><path d="M162.6,438.35s-20.65.1-46.14.1-46.14,0-46.14-.1,20.65,0,46.14,0S162.6,438.29,162.6,438.35Z" style="fill:#263238"></path><polygon points="111.77 427.75 111.77 434.34 113.98 432.87 116.46 434.34 116.46 427.75 111.77 427.75" style="fill:#0D6EFD"></polygon></g><g id="freepik--Icon--inject-5"><path d="M307.8,89.89a7.46,7.46,0,1,1-4.95-9.32A7.46,7.46,0,0,1,307.8,89.89Z" style="fill:#0D6EFD"></path><path d="M340.94,69.59a10.76,10.76,0,1,1-7.14-13.43A10.76,10.76,0,0,1,340.94,69.59Z" style="fill:#0D6EFD"></path><line x1="300.81" y1="87.21" x2="325.17" y2="69.86" style="fill:#0D6EFD"></line><rect x="298.04" y="78.03" width="29.91" height="1" transform="translate(12.49 196.14) rotate(-35.46)" style="fill:#0D6EFD"></rect><path d="M344.28,96.46a7.47,7.47,0,1,1-10.56-.15A7.48,7.48,0,0,1,344.28,96.46Z" style="fill:#0D6EFD"></path><line x1="337.01" y1="98.57" x2="333.52" y2="68.87" style="fill:#0D6EFD"></line><rect x="334.76" y="68.77" width="1" height="29.91" transform="translate(-7.47 39.59) rotate(-6.68)" style="fill:#0D6EFD"></rect><path d="M312.15,45.73a4.75,4.75,0,1,1,6-2.95A4.75,4.75,0,0,1,312.15,45.73Z" style="fill:#0D6EFD"></path><line x1="313.82" y1="42.44" x2="326.42" y2="61.43" style="fill:#0D6EFD"></line><rect x="319.62" y="40.54" width="1" height="22.79" transform="translate(24.66 185.64) rotate(-33.56)" style="fill:#0D6EFD"></rect></g><g id="freepik--Character--inject-5"><path d="M216.34,196l-12.91,17.73c-1.61,0-32.74,14.41-32.74,14.41l14.48,114.24L170.69,470.61h149.1S311.26,280,313.94,268.78L303.7,203l-28.45-.37-15.06-10Z" style="fill:#e0e0e0"></path><path d="M211.74,210.93c-.9.93,15.38,19.64,15.38,19.64l32.56,52.76,10.78-78.8-11-11.62-44.66,2.27Z" style="fill:#fff"></path><path d="M170.69,228.18a36.81,36.81,0,0,0-11.32,12.25c-4.68,8.19-49.52,76.47-51.47,91.27s8.78,41.57,35.3,23.64,49.1-61.55,49.1-61.55Z" style="fill:#e0e0e0"></path><path d="M144.31,286.8c-.84.84-6.55,8-6.55,8l9.5,38.91,10-21.8Z" style="fill:#ffbf9d"></path><path d="M111.82,322.39a6.41,6.41,0,0,1,.38-.71l1.14-2c1-1.73,2.58-4.21,4.64-7.22A184.23,184.23,0,0,1,136.31,290l.32-.33.11.45c.57,2.33,1.17,4.76,1.78,7.24,3.12,12.9,5.95,24.57,8,33.07,1,4.21,1.8,7.62,2.37,10l.62,2.73.15.71a.8.8,0,0,1,0,.25.92.92,0,0,1-.09-.23l-.19-.71c-.18-.66-.42-1.56-.72-2.71l-2.53-10c-2.1-8.49-5-20.15-8.17-33-.61-2.48-1.2-4.92-1.77-7.25l.43.12a197.22,197.22,0,0,0-18.41,22.29c-2.09,3-3.69,5.42-4.76,7.12l-1.22,2A4.6,4.6,0,0,1,111.82,322.39Z" style="fill:#263238"></path><path d="M153.33,320.43s.72,23.73-1.48,24.45c0,0-1.32.9-2.78-3.34-1.6-4.61-2-7.39-1.81-7.82Z" style="fill:#263238"></path><path d="M303.7,203s13.07,2,13.68,2,3-4.43,7.84-3.82S329,206,333.67,205s1-5,6.43-5.63,11.87.4,13.08,0,27.76-46.67,28.36-46.27,27.56,33.8,27.56,33.8S392,232.34,384.56,242.6A32,32,0,0,1,362,256.08c-5.43.6-37.69.8-43.73,3.82s-4.78,14.38-4.78,14.38l-22.09-51.79Z" style="fill:#e0e0e0"></path><path d="M316.31,226.68a2.53,2.53,0,0,1,0,.63l-.09,1.8c-.1,1.63-.24,3.88-.4,6.62-.34,5.59-.76,13.32-1.07,21.86s-.44,16.28-.51,21.88c0,2.75-.06,5-.08,6.63,0,.74,0,1.34,0,1.81a3.15,3.15,0,0,1-.05.63,2.64,2.64,0,0,1-.06-.63c0-.47,0-1.07-.06-1.81,0-1.56-.07-3.83-.09-6.63,0-5.61.06-13.35.36-21.9s.79-16.27,1.22-21.86c.22-2.8.41-5.05.57-6.61.07-.74.14-1.33.19-1.8A2.82,2.82,0,0,1,316.31,226.68Z" style="fill:#263238"></path><path d="M259.68,466.76c-.14,0-.26-41.06-.26-91.71s.12-91.72.26-91.72.26,41.06.26,91.72S259.82,466.76,259.68,466.76Z" style="fill:#263238"></path><path d="M259.68,283.33s-.08,0-.21-.14l-.59-.45L256.64,281c-2-1.5-4.85-3.65-8.54-6.1s-8.18-5.23-13.16-8.32-10.45-6.55-15.85-10.67l-2-1.54-1.92-1.59c-1.28-1.05-2.5-2.12-3.69-3.2a47.78,47.78,0,0,1-6.29-6.76,22.8,22.8,0,0,1-3.83-7.43,26.27,26.27,0,0,1-.89-7.23,64.39,64.39,0,0,1,1.11-10.46c.22-1.19.39-2.13.52-2.81l.15-.73a1.23,1.23,0,0,1,.07-.25,1,1,0,0,1,0,.26c0,.19-.06.44-.1.73-.1.69-.24,1.63-.42,2.83a69.66,69.66,0,0,0-.94,10.43,26.14,26.14,0,0,0,.93,7.11,22.68,22.68,0,0,0,3.81,7.26,47.42,47.42,0,0,0,6.25,6.68c1.18,1.06,2.4,2.13,3.67,3.17l1.92,1.58,2,1.54c5.37,4.1,10.82,7.55,15.78,10.67s9.45,5.91,13.12,8.42,6.52,4.7,8.45,6.25c1,.79,1.69,1.42,2.19,1.85l.55.49C259.63,283.26,259.69,283.33,259.68,283.33Z" style="fill:#263238"></path><path d="M259.68,283.33a.67.67,0,0,1,.09-.22c.09-.17.19-.38.31-.64l1.24-2.41c1.12-2.13,2.69-5.15,4.63-8.85l6.84-13.14c2.54-4.95,5.39-10.39,8.13-16.19s4.89-11.56,6.82-16.79c.46-1.3,1-2.59,1.33-3.81a6.88,6.88,0,0,0-.31-3.66,19.79,19.79,0,0,0-3.52-5.8,55.34,55.34,0,0,0-7.14-6.93c-.9-.75-1.62-1.31-2.11-1.69l-.56-.44a1.22,1.22,0,0,1-.18-.16s.08,0,.21.12l.59.39c.51.36,1.25.9,2.18,1.63a51.15,51.15,0,0,1,7.29,6.84,19.55,19.55,0,0,1,3.64,5.9,7.21,7.21,0,0,1,.36,3.9c-.36,1.33-.87,2.55-1.33,3.88-1.91,5.24-4.11,11-6.79,16.84s-5.62,11.24-8.18,16.19-5,9.38-6.94,13.09-3.63,6.66-4.78,8.77l-1.32,2.37-.36.61C259.74,283.27,259.69,283.34,259.68,283.33Z" style="fill:#263238"></path><path d="M365.54,228.22a5.28,5.28,0,0,1-.78-1c-.47-.64-1.12-1.59-1.89-2.78a82.05,82.05,0,0,1-5.32-9.75,81.18,81.18,0,0,1-3.94-10.39c-.41-1.36-.7-2.47-.88-3.24a6.22,6.22,0,0,1-.23-1.22,5.18,5.18,0,0,1,.43,1.16c.23.76.58,1.85,1,3.19A104.71,104.71,0,0,0,358,214.51a106.77,106.77,0,0,0,5.16,9.77c.73,1.22,1.33,2.19,1.75,2.87A5.66,5.66,0,0,1,365.54,228.22Z" style="fill:#263238"></path><path d="M370.93,222.65a4.32,4.32,0,0,1-.85-.77c-.52-.53-1.26-1.3-2.15-2.27-1.8-2-4.2-4.69-6.74-7.83s-4.72-6.06-6.25-8.22c-.76-1.08-1.36-2-1.77-2.58a5,5,0,0,1-.58-1,4.24,4.24,0,0,1,.75.87l1.9,2.48c1.6,2.1,3.82,5,6.35,8.11s4.89,5.91,6.61,7.91l2,2.38A4.52,4.52,0,0,1,370.93,222.65Z" style="fill:#263238"></path><polygon points="249.64 228 256.21 226.68 263.55 232.3 259.06 243.56 250.28 244.2 244.88 236.35 249.64 228" style="fill:#0D6EFD"></polygon><path d="M270.46,204.53a3.37,3.37,0,0,1,0,.56c-.05.4-.11.95-.19,1.63-.18,1.47-.44,3.54-.77,6.16-.71,5.32-1.7,12.83-2.88,21.73l-.05.41-.33-.26-14-11.36.38-.08-3,5.19c-2.06,3.62-4.06,7.14-6,10.48l-.15.27-.23-.2c-9.19-7.89-17.16-14.83-22.8-19.85-2.81-2.51-5-4.53-6.55-6a12,12,0,0,1-2.2-2.32s0,.06.14.16a5.66,5.66,0,0,0,.43.43c.39.37,1,.91,1.75,1.6,1.54,1.39,3.8,3.37,6.65,5.85,5.69,4.94,13.7,11.83,22.91,19.7l-.39.07c1.9-3.35,3.9-6.87,6-10.48l2.95-5.19.16-.27.23.19,14,11.4-.38.15c1.25-8.88,2.31-16.38,3.06-21.7.39-2.61.69-4.68.91-6.14.11-.68.19-1.22.26-1.62A3,3,0,0,1,270.46,204.53Z" style="fill:#263238"></path><polygon points="250.28 244.2 245.24 259.93 259.68 283.33 263.62 254.55 259.06 243.56 250.28 244.2" style="fill:#0D6EFD"></polygon><polygon points="177.62 405.27 173.96 420.21 217.6 424.48 221.22 408.32 177.62 405.27" style="fill:#e0e0e0"></polygon><path d="M177.62,405.27h.2l.62,0,2.4.13,9.06.56,31.33,2.08.3,0-.07.29c-1.09,4.91-2.27,10.19-3.49,15.65l-.11.51-.05.22-.23,0L174,420.38l-.2,0,.05-.19,2.78-11c.33-1.24.58-2.22.76-2.92.09-.3.15-.55.2-.74l.08-.24a1.1,1.1,0,0,1-.05.28c0,.2-.1.46-.17.78-.16.71-.39,1.7-.68,3-.61,2.6-1.49,6.31-2.59,10.95L174,420l43.65,4.18-.28.2c0-.16.07-.33.11-.5,1.23-5.46,2.41-10.74,3.51-15.65l.23.3L190,406.28l-9.1-.71-2.45-.2-.64-.06Z" style="fill:#263238"></path><polygon points="287.21 409.28 290.62 424.48 323.05 422.04 317.77 406.08 287.21 409.28" style="fill:#e0e0e0"></polygon><path d="M287.21,409.28a3.49,3.49,0,0,1,.55-.09l1.65-.2,6.27-.72,22.07-2.43.19,0,.06.19c1.64,4.92,3.43,10.31,5.3,15.95l.1.31-.33,0-.28,0-32.16,2.35h-.16l0-.16c-1-4.69-1.82-8.51-2.4-11.2-.26-1.28-.47-2.29-.63-3l-.15-.77c0-.17,0-.26,0-.25a1.33,1.33,0,0,1,.09.28l.2.8c.17.74.42,1.75.73,3,.62,2.65,1.49,6.41,2.57,11l-.2-.15,32.15-2.49.28,0-.23.34c-1.86-5.64-3.63-11-5.26-16l.26.17-21.92,2.16-6.35.6-1.7.15Z" style="fill:#263238"></path><path d="M286.93,313.54a5.87,5.87,0,0,1-.42.77l-1.28,2.15c-1.11,1.87-2.79,4.54-4.94,7.78s-4.79,7.06-7.84,11.21-6.56,8.59-10.38,13.14-7.64,8.74-11.18,12.48-6.86,7-9.7,9.65-5.17,4.78-6.82,6.2l-1.91,1.63a8.56,8.56,0,0,1-.68.54,4.1,4.1,0,0,1,.61-.62l1.84-1.71c1.61-1.46,3.91-3.61,6.71-6.31s6.06-6,9.6-9.71,7.3-7.95,11.13-12.48,7.3-9,10.39-13.1,5.75-7.9,7.93-11.12,3.91-5.85,5.07-7.69l1.37-2.1A5.16,5.16,0,0,1,286.93,313.54Z" style="fill:#263238"></path><path d="M388.74,145.5c-.68.54-7.73,19.57-7.73,19.57l26.77,21.74L411.42,157Z" style="fill:#ffbf9d"></path><path d="M388.6,137.26l-2,3.65s-7.7.81-5,6.34,32.54,16.47,32.54,16.47L415.2,151Z" style="fill:#0D6EFD"></path><path d="M423.83,130s3.27-6.16-1.31-10.34l-.66-.61c.39-1.61,1.54-7-.12-9.47-2-2.88-7.59-6-7.59-6s2.35-4.45-.79-7.07S402,94.28,402,94.28l-10.08,3.4c-.39,0-3.14,0-4.06,6s-2.09,15.7-2,18.58S388,138.9,388,138.9l25.26,11.91s11.52-12.95,11.91-16.36S423.83,130,423.83,130Z" style="fill:#0D6EFD"></path><path d="M433.61,141.28a22.92,22.92,0,0,0-22.87-15.48L398,88.5,386.1,92.56l12.75,37.3a22.92,22.92,0,1,0,34.76,11.42Z" style="fill:#fff"></path><path d="M433.61,141.28s.06.16.16.48.25.83.44,1.45.3,1.46.49,2.42c.08.49.1,1,.15,1.57,0,.29,0,.58.08.87s0,.61,0,.93a23,23,0,0,1-9.66,18.53A23.1,23.1,0,0,1,390.34,157a22.72,22.72,0,0,1-1.3-4.72,23.14,23.14,0,0,1-.24-5,21.58,21.58,0,0,1,.28-2.52,24.43,24.43,0,0,1,.58-2.5,23.23,23.23,0,0,1,5-9.1,24.26,24.26,0,0,1,4-3.55l-.1.29c-1-2.92-2.06-6-3.14-9.17-3.32-9.75-6.55-19.2-9.59-28.12l-.09-.24.24-.08,11.89-4.06.23-.07.08.22c4.89,14.39,9.21,27.09,12.68,37.32l-.17-.12a23.21,23.21,0,0,1,12,2.75,23,23,0,0,1,7.13,6,23.59,23.59,0,0,1,3,5c.25.62.42,1.1.53,1.42s.17.49.17.49-.08-.16-.21-.48l-.58-1.39a24.92,24.92,0,0,0-3.06-4.95,23,23,0,0,0-19-8.49h-.13l0-.13L397.76,88.58l.31.15L386.18,92.8l.16-.32c3.05,8.93,6.28,18.37,9.62,28.12l3.13,9.18.06.18-.16.11a25.48,25.48,0,0,0-3.92,3.47,23.11,23.11,0,0,0-3,4.21,21.7,21.7,0,0,0-1.94,4.69,22.87,22.87,0,0,0-.63,9.8,22.39,22.39,0,0,0,1.28,4.62A22.74,22.74,0,0,0,434.72,149c0-.32,0-.62,0-.92s0-.59-.06-.86c0-.56-.06-1.09-.12-1.57-.18-1-.27-1.77-.44-2.41s-.3-1.11-.4-1.46S433.61,141.28,433.61,141.28Z" style="fill:#263238"></path><path d="M431.4,141.53c-2.3-8.79-13.65-14.11-22.3-13.66L396.69,90.73l-8.51,2.91,13.6,36.42c-7.71,4.25-13.41,17-9.82,25.31,4.47,10.44,16.15,16.36,26.55,12.81S434.41,153.09,431.4,141.53Z" style="fill:#e0e0e0"></path><path d="M399.49,89.77l-14.11,4.82a1.53,1.53,0,0,1-1.95-1h0a1.53,1.53,0,0,1,1-2l14.11-4.82a1.53,1.53,0,0,1,1.95.95h0A1.54,1.54,0,0,1,399.49,89.77Z" style="fill:#fff"></path><path d="M399.49,89.77s.13-.07.33-.22a1.48,1.48,0,0,0,.57-.9,1.43,1.43,0,0,0-.59-1.46,1.36,1.36,0,0,0-1-.23,12.41,12.41,0,0,0-1.18.39c-3.36,1.2-8,2.82-13.18,4.58a1.29,1.29,0,0,0-.86,1.3,1.28,1.28,0,0,0,1,1.16,1.39,1.39,0,0,0,.8-.07l.89-.3,1.72-.58,5.95-2,4-1.29a9.12,9.12,0,0,1,1.5-.41,9,9,0,0,1-1.43.6l-4,1.44-5.92,2.09-1.71.59-.89.31a1.83,1.83,0,0,1-1.07.09,1.79,1.79,0,0,1-.19-3.45c5.16-1.76,9.84-3.33,13.23-4.44a10.2,10.2,0,0,1,1.26-.37A1.69,1.69,0,0,1,400,87a1.64,1.64,0,0,1,.62,1.74,1.58,1.58,0,0,1-.71,1A.74.74,0,0,1,399.49,89.77Z" style="fill:#263238"></path><path d="M391.56,112c.88-2.66.22-8.64-1.22-11.86-.68-1.51-3.41-2.22-4.24-.6-1.16,2.27-4,12.35-4.18,16.12s5.64,9.91,5.64,9.91l4.29-6.48S390.67,114.68,391.56,112Z" style="fill:#0D6EFD"></path><path d="M389.85,118.54a22.19,22.19,0,0,1,.79-4.75,22.79,22.79,0,0,1,1.3-4.64,22.1,22.1,0,0,1-.79,4.75A22.54,22.54,0,0,1,389.85,118.54Z" style="fill:#263238"></path><path d="M428.86,143.18a18,18,0,1,1-33.16-2.24s10.23-1.2,17.85,2.88S428.86,143.18,428.86,143.18Z" style="fill:#455a64"></path><g style="opacity:0.4"><path d="M391.07,92.59c.12.26,12.84,37.62,12.84,37.62s18.41,10.16,19.25,23.89l7.75-2.66s3-21.84-22.68-23.33L395.82,91Z" style="fill:#fff"></path></g><path d="M400.42,94.73a2.16,2.16,0,0,0-1,3.29c1.33,2.37,2.78,2.81,2.78,2.81s-4.15.66-3.19,3.21a5.06,5.06,0,0,0,3.19,3.11s-2.78,2.88,1.44,5.65l3.32,1.55a6.46,6.46,0,0,0,1.66,6.87l3.22,3.43s9.75,2.66,9.64.67-.11-4.54-3.44-6.1c0,0,2.77-6.57-.22-9.93a61.21,61.21,0,0,0-6.43-6.13s3.11-2.07-.44-5.14S403.08,93.4,400.42,94.73Z" style="fill:#0D6EFD"></path><path d="M415.48,104.35a28.07,28.07,0,0,0-6.77-2.85,27.56,27.56,0,0,0-7.32-.47,6.09,6.09,0,0,1,2.15-.44,17.08,17.08,0,0,1,5.29.4,16.82,16.82,0,0,1,4.91,2A6.22,6.22,0,0,1,415.48,104.35Z" style="fill:#263238"></path><path d="M417.71,111a80.56,80.56,0,0,0-7.81-2.57,80.09,80.09,0,0,0-8.12-1.22,9,9,0,0,1,2.43-.1,31.4,31.4,0,0,1,5.82.81,31,31,0,0,1,5.55,1.9A8.69,8.69,0,0,1,417.71,111Z" style="fill:#263238"></path><path d="M419.11,118c-.07.15-2.65-1.17-6.05-2.2s-6.27-1.39-6.25-1.55a6.41,6.41,0,0,1,1.91.08,27.71,27.71,0,0,1,4.49,1,25.85,25.85,0,0,1,4.27,1.7A6.39,6.39,0,0,1,419.11,118Z" style="fill:#263238"></path><path d="M418,124.51a10.6,10.6,0,0,1-2.51-.41,17.7,17.7,0,0,1-5.72-2.29c-2-1.34-3.47-3.26-3.63-4.93a3.28,3.28,0,0,1,.32-1.88c.22-.41.43-.56.45-.54a3.91,3.91,0,0,0-.41,2.37c.23,1.49,1.62,3.26,3.56,4.54a20.17,20.17,0,0,0,5.53,2.37A15.74,15.74,0,0,1,418,124.51Z" style="fill:#263238"></path><path d="M179.68,236.79V293L165.31,327a5,5,0,0,0,4.65,7h52.11a5.05,5.05,0,0,0,4.6-7.13L211.37,293V236.79Z" style="fill:#fff"></path><path d="M179.68,236.79l.53,0h1.59l6.2,0,23.37-.09h.16v.16c0,14.59.05,34,.08,56.25l0-.1L223,318c1,2.18,2,4.39,3,6.6l.75,1.67a7.5,7.5,0,0,1,.62,1.8,5.69,5.69,0,0,1-.05,1.93,5.82,5.82,0,0,1-.73,1.79,6,6,0,0,1-1.33,1.42,5.71,5.71,0,0,1-1.76.84,7.51,7.51,0,0,1-1.93.18h-46c-1.95,0-3.86,0-5.79,0a5.26,5.26,0,0,1-4.63-3.22,5.15,5.15,0,0,1-.36-2.87,13.08,13.08,0,0,1,1-2.66l2.13-5,4.11-9.69L179.5,293l0,.08c0-17.22.08-31.3.11-41.09,0-4.86,0-8.65,0-11.25,0-1.27,0-2.25,0-2.92s0-1,0-1,0,.36,0,1,0,1.67,0,3c0,2.61,0,6.42.05,11.3,0,9.76.06,23.8.11,41v0l0,0L172.34,311l-4.09,9.69-2.12,5a12.23,12.23,0,0,0-.92,2.55,4.65,4.65,0,0,0,.33,2.6,4.77,4.77,0,0,0,4.2,2.91c1.88,0,3.83,0,5.77,0h46a7.1,7.1,0,0,0,1.8-.16,5.49,5.49,0,0,0,1.58-.76,5.21,5.21,0,0,0,1.2-1.28,4.76,4.76,0,0,0,.71-3.36,19,19,0,0,0-1.33-3.33c-1-2.22-2-4.42-3-6.61l-11.34-25.12,0,0v0c0-22.27.06-41.66.08-56.25l.16.16-23.28-.09-6.23,0h-1.62Z" style="fill:#263238"></path><path d="M182.05,238.87V294.3L168.66,327a2.46,2.46,0,0,0,2.19,3.42h50.33a2.45,2.45,0,0,0,2.16-3.47L209.07,294.3V238.87Z" style="fill:#e0e0e0"></path><path d="M213.29,304l10.05,23a2.45,2.45,0,0,1-2.16,3.47H170.85a2.46,2.46,0,0,1-2.19-3.42l9.83-24s6.41-1.27,10.32-.73,8,3.19,12.88,3.19A46.57,46.57,0,0,0,213.29,304Z" style="fill:#0D6EFD"></path><path d="M212.78,238.87H179.24a1.66,1.66,0,0,1-1.66-1.67h0a1.66,1.66,0,0,1,1.66-1.67h33.54a1.67,1.67,0,0,1,1.67,1.67h0A1.67,1.67,0,0,1,212.78,238.87Z" style="fill:#fff"></path><path d="M212.78,238.87a3.27,3.27,0,0,0,.74-.23,1.61,1.61,0,0,0,.77-1.84,1.54,1.54,0,0,0-1-1.06,2.74,2.74,0,0,0-.88-.07h-1l-4.73,0-27.41.07a1.42,1.42,0,0,0-1,2.43,1.47,1.47,0,0,0,.72.37,9,9,0,0,0,.92,0h1.91l7.28,0,12.33.05,8.3.09,2.26,0a4,4,0,0,1,.79.06,6.93,6.93,0,0,1-.79,0l-2.26.05-8.3.08-12.33.06h-9.19a7.09,7.09,0,0,1-1,0,1.92,1.92,0,0,1-1.45-2.59,1.94,1.94,0,0,1,1.8-1.23l27.41.08,4.73,0h1a2.69,2.69,0,0,1,1,.11,1.77,1.77,0,0,1,1.12,1.24,1.74,1.74,0,0,1-.2,1.32,1.71,1.71,0,0,1-.73.66A1.26,1.26,0,0,1,212.78,238.87Z" style="fill:#263238"></path><g style="opacity:0.4"><path d="M196.14,241c.2,9.69-.3,48.7-.34,51.68a2.22,2.22,0,0,0,0,.37l5.57,33.74a2.13,2.13,0,0,0,2.09,1.78h12.22a2.14,2.14,0,0,0,2-2.94l-13.29-32.38a2.19,2.19,0,0,1-.16-.8V241a2.12,2.12,0,0,0-2.12-2.12h-3.84A2.13,2.13,0,0,0,196.14,241Z" style="fill:#fff"></path></g><path d="M144.6,284.56l8.84-10.44s10.23-21.4,13.59-23.51,8.42-5.89,16-6.31,20.83,2.95,19.57,5.47a5,5,0,0,1-3.79,2.74l9.26,2A3.78,3.78,0,0,1,211,259a5.18,5.18,0,0,1-4.16,4.18s1,3-.84,4.86-12.63,1.05-12.63,1.05-8.62,6.94-8,6.73,18.51-5.05,20-2.94.21,3.57-1.48,4.41-18.72,6.32-20.19,7.37-13.47,13.82-17.26,14.59-4.21,1.61-4.21,1.61l-5.05,12.2s-8-7.36-12.2-15.78S144.6,284.56,144.6,284.56Z" style="fill:#0D6EFD"></path><path d="M176.24,252.51a2.79,2.79,0,0,1,.86-.26c.57-.14,1.38-.33,2.4-.49a51.45,51.45,0,0,1,8-.71,46,46,0,0,1,8.05.57,9.4,9.4,0,0,1,3.22.89,7.1,7.1,0,0,1-.87-.16c-.57-.1-1.39-.24-2.4-.37a61.2,61.2,0,0,0-8-.41,69.32,69.32,0,0,0-8,.56A33,33,0,0,1,176.24,252.51Z" style="fill:#263238"></path><path d="M185.64,261.58s.28-.13.79-.4a10.78,10.78,0,0,1,2.27-.83,29.72,29.72,0,0,1,7.92-.69,21.21,21.21,0,0,1,7.83,1.32,5.17,5.17,0,0,1,2,1.42c.37.46.4.82.36.82a4.42,4.42,0,0,0-.51-.69,5.68,5.68,0,0,0-2-1.21,23.64,23.64,0,0,0-7.71-1.14,34.81,34.81,0,0,0-7.82.53C186.83,261.12,185.7,261.75,185.64,261.58Z" style="fill:#263238"></path><path d="M215.19,198.22,195.61,146c-7.14-18.84-2.13-38.69,16.89-45.31l1.8-.51a36,36,0,0,1,43.57,22.07c6.1,16.36,12.62,34.51,15.06,43.53,5,18.66-12.74,26.82-12.74,26.82s-.15-.28,1.63,5.1l-9.45,25.51h0Z" style="fill:#ffbf9d"></path><path d="M260.19,192.58s-11.52,4-26.24-.29c0,0,9.79,12.33,27.87,5.39Z" style="fill:#ff9a6c"></path><path d="M257.05,140.05a2.77,2.77,0,0,1-1.8,3.41,2.65,2.65,0,0,1-3.42-1.62,2.76,2.76,0,0,1,1.8-3.41A2.65,2.65,0,0,1,257.05,140.05Z" style="fill:#263238"></path><path d="M256.24,131.56c-.23.44-2.66-.48-5.52.34s-4.54,2.84-4.95,2.58c-.2-.12,0-.84.69-1.76a7.5,7.5,0,0,1,3.84-2.49,7.23,7.23,0,0,1,4.52.16C255.89,130.82,256.36,131.36,256.24,131.56Z" style="fill:#263238"></path><path d="M233.34,148.87a2.75,2.75,0,0,1-1.8,3.4,2.63,2.63,0,0,1-3.42-1.61,2.76,2.76,0,0,1,1.8-3.41A2.65,2.65,0,0,1,233.34,148.87Z" style="fill:#263238"></path><path d="M228.42,140.16c-.23.44-2.67-.47-5.52.34s-4.55,2.84-5,2.58c-.19-.11,0-.83.69-1.75a7.57,7.57,0,0,1,3.84-2.5A7.37,7.37,0,0,1,227,139C228.06,139.42,228.54,140,228.42,140.16Z" style="fill:#263238"></path><path d="M244.9,159.22c-.06-.16,1.63-1,4.4-2.16.71-.28,1.36-.62,1.34-1.15a3.91,3.91,0,0,0-1.1-2l-3.73-4.94c-5.24-7.07-9.26-12.95-9-13.16s4.76,5.34,10,12.4c1.28,1.75,2.5,3.41,3.66,5a4.39,4.39,0,0,1,1.19,2.75,1.93,1.93,0,0,1-.9,1.41,5.4,5.4,0,0,1-1.19.53C246.75,158.85,245,159.37,244.9,159.22Z" style="fill:#263238"></path><path d="M226.81,131c-.18.84-3.17.86-6.57,1.75s-6.06,2.2-6.62,1.55c-.25-.32.14-1.14,1.16-2.07a11.84,11.84,0,0,1,10-2.51C226.16,130,226.88,130.57,226.81,131Z" style="fill:#263238"></path><path d="M254,123.12c-.4.82-2.91.85-5.71,1.65s-5,2-5.76,1.46c-.33-.25-.16-1,.69-1.93a9.9,9.9,0,0,1,9.24-2.51C253.64,122.16,254.16,122.73,254,123.12Z" style="fill:#263238"></path><path d="M201,159.32c-.36,0-13.85-.16-9.84,12.44s16.93,5.9,16.84,5.53S201,159.32,201,159.32Z" style="fill:#ffbf9d"></path><path d="M201.56,173.82c-.07,0-.17.22-.49.51a2.33,2.33,0,0,1-1.63.56c-1.48-.07-3.28-1.83-4.06-4.08a7.65,7.65,0,0,1-.39-3.33,2.68,2.68,0,0,1,1.12-2.21,1.18,1.18,0,0,1,1.49.18c.28.3.28.58.35.58s.2-.3-.06-.78a1.52,1.52,0,0,0-.75-.64,1.75,1.75,0,0,0-1.32.07,3.24,3.24,0,0,0-1.67,2.68,7.83,7.83,0,0,0,.36,3.76c.89,2.51,2.94,4.47,4.93,4.42a2.47,2.47,0,0,0,1.9-1C201.64,174.13,201.61,173.83,201.56,173.82Z" style="fill:#ff9a6c"></path><path d="M277.79,97.37a3.14,3.14,0,0,0-2-1.3c-1.71-.4-3.34.24-4.95.72a27.75,27.75,0,0,1-12.45.75,13.61,13.61,0,0,0,2.63-3.45c1.4-2.68,1.59-6.16-.21-8.59a1.85,1.85,0,0,0-1.37-.89c-.9,0-1.36,1-1.73,1.86-1.21,2.69-2.66,4.14-5.55,4.74a11.78,11.78,0,0,1-5.24.1l-.22-.13c-.86-.47-1.71-.91-2.54-1.34h0c-6.23-3.2-11.34-5.17-16.07-5.54-6.94-.53-17.55,1.72-23.44,5.43s-10,10.74-8.81,17.6c-4.56-1.9-10-.17-13.78,3l-.13,0c-4.33,3.29-5.47,9.32-5.34,14.76,0,.29,0,.59,0,.89a20.25,20.25,0,0,1-4.54,8.49c-.39.42-.82.93-.71,1.49s.71.86,1.25,1a10.1,10.1,0,0,0,4.47.39,22.89,22.89,0,0,1-.53,3.94c-.26,1.11-.56,2.43.23,3.25a2.15,2.15,0,0,0,2.45.26,6.25,6.25,0,0,0,2-1.75c-.14,1.48-.27,2.95-.4,4.43a12.14,12.14,0,0,0,5.2-2c2.51,4.32,6,12.7,8.21,15.48,3.36-1,4.06-1.62,5.93-1.6,2.41,0,2.8,4.16,5.29,2.17,1.27-1,1.76-7.2,1.77-8.83a75.34,75.34,0,0,0-6.51-31.45,24.23,24.23,0,0,1,5.51-7.42l-.15.27c4.59-3.42,9.86-7,15.52-6.15,4.38.68,7.86,3.91,11.69,6.15,7.25,4.26,14.34,5.51,22.47,3.32,2.48,5.34,5.57,14.37,7.48,19.48l1.15-11.8,0,0c.16-.72.27-1.43.36-2.13l0-.22v0a32.25,32.25,0,0,1,.53-3.42l.06,0c3.6,1.59,6.54-3.51,3.37-5.84a7.71,7.71,0,0,0-2.07-1.08,5.39,5.39,0,0,0,5.29-.28,4.23,4.23,0,0,0,1.59-4.88,3.59,3.59,0,0,0-2.91-2.1,12.2,12.2,0,0,0,6.12-3.53C277.86,100.49,278.74,98.86,277.79,97.37Z" style="fill:#263238"></path><path d="M202.35,107.61a20.14,20.14,0,0,0-1.31,2.28,13.87,13.87,0,0,0-.9,7,25.22,25.22,0,0,0,1,4.84c.53,1.7,1.25,3.48,2,5.35a51,51,0,0,1,2.05,6,22.36,22.36,0,0,1,.6,3.32,7,7,0,0,1-.33,3.51,2.91,2.91,0,0,1-2.32,1.7,4.36,4.36,0,0,1-2.77-.58,10.15,10.15,0,0,1-3.26-4.13l.41-.08a16.35,16.35,0,0,1-1,4.58,5.73,5.73,0,0,1-3,3.09,3.68,3.68,0,0,1-2,.26,3.12,3.12,0,0,1-1.69-.86,3.34,3.34,0,0,1-.91-1.51,2.41,2.41,0,0,1,.14-1.62l.25.11a12.57,12.57,0,0,1-3,4.23,13,13,0,0,1-1.08.86,1.84,1.84,0,0,1-.41.25,2.9,2.9,0,0,1,.36-.31c.24-.2.6-.49,1-.91a12.94,12.94,0,0,0,2.88-4.23l.25.11a2.46,2.46,0,0,0,.74,2.78,2.89,2.89,0,0,0,1.53.76,3.39,3.39,0,0,0,1.81-.26,5.4,5.4,0,0,0,2.74-2.91,15.78,15.78,0,0,0,1-4.47l.08-.67.32.6a9.68,9.68,0,0,0,3.11,3.94,3.88,3.88,0,0,0,2.47.52,2.45,2.45,0,0,0,2-1.44,6.56,6.56,0,0,0,.29-3.27,21.55,21.55,0,0,0-.58-3.26,51.39,51.39,0,0,0-2-6c-.72-1.88-1.42-3.67-2-5.4a25,25,0,0,1-1-4.92,13.74,13.74,0,0,1,1.06-7.12A8,8,0,0,1,202.35,107.61Z" style="fill:#455a64"></path><path d="M265.1,107.52s0,.07-.1.18-.22.28-.36.48a6.53,6.53,0,0,1-.62.75,9.23,9.23,0,0,1-.94.94,17.17,17.17,0,0,1-7.44,3.92,22,22,0,0,1-12.44-.59,38,38,0,0,1-13-8c-2.05-1.81-3.87-3.75-5.74-5.48a25.77,25.77,0,0,0-5.9-4.32,13.12,13.12,0,0,0-6.34-1.54,9.17,9.17,0,0,0-2.9.56,10.46,10.46,0,0,0-2.41,1.3,11.33,11.33,0,0,0-3.12,3.54,11.12,11.12,0,0,0-1.23,3.36,13,13,0,0,0-.07,3.06s0-.06-.05-.19,0-.36-.09-.6a9.51,9.51,0,0,1,0-2.3,11.34,11.34,0,0,1,1.18-3.46,11.16,11.16,0,0,1,3.15-3.66,10.39,10.39,0,0,1,2.48-1.38,9.77,9.77,0,0,1,3-.61A13.51,13.51,0,0,1,218.7,95a25.88,25.88,0,0,1,6,4.36c1.89,1.75,3.71,3.68,5.74,5.48a38.11,38.11,0,0,0,12.88,7.94,21.8,21.8,0,0,0,12.23.68,17.48,17.48,0,0,0,7.41-3.74A26.9,26.9,0,0,0,265.1,107.52Z" style="fill:#455a64"></path><path d="M264.22,98.88a3,3,0,0,1-.52.67,14,14,0,0,1-1.64,1.62,20.33,20.33,0,0,1-2.78,2,21,21,0,0,1-7.88,2.77,20.1,20.1,0,0,1-3.42.18,15.26,15.26,0,0,1-2.29-.23,2.92,2.92,0,0,1-.82-.2c0-.08,1.19.12,3.11.11a24.05,24.05,0,0,0,3.36-.27,24.58,24.58,0,0,0,4-1,22.49,22.49,0,0,0,6.53-3.6C263.36,99.73,264.16,98.83,264.22,98.88Z" style="fill:#455a64"></path><path d="M239,164.27c.41-.18,1.4,2.66,4.53,3.83s6-.18,6.2.21c.1.16-.48.78-1.75,1.26a7.51,7.51,0,0,1-5.12,0,6.55,6.55,0,0,1-3.62-3.28C238.68,165.13,238.75,164.32,239,164.27Z" style="fill:#263238"></path><g style="opacity:0.5"><path d="M210.37,145.67a4.93,4.93,0,0,1,3-6.4c12.14-4.3,44-15.34,46.17-15.35.95,0,9.61,20.38,7.78,22.66-3.88,4.83-11.64,6-14.86,3.83s-7-7.91-9.28-5.58.12,10.18-3.82,12.44-15,7.14-20.18,3.72C215.77,158.76,212.34,150.86,210.37,145.67Z" style="fill:#fff"></path></g><path d="M209.76,143.61c-.18.26-15.15,17.1-15.15,17.1l7-1.4,12-6.39Z" style="fill:#455a64"></path></g></svg>
