<svg xmlns="http://www.w3.org/2000/svg" viewBox="0 0 500 500"><g id="freepik--Floor--inject-25"><path id="freepik--floor--inject-25" d="M84.44,249.29c-92.08,53.16-92.08,139.35,0,192.52s241.37,53.16,333.45,0,92.07-139.36,0-192.52S176.51,196.13,84.44,249.29Z" style="fill:#fafafa"></path></g><g id="freepik--Window--inject-25"><g id="freepik--window--inject-25"><g id="freepik--window--inject-25"><g id="freepik--Frame--inject-25"><polygon points="42.83 246.34 45.51 247.94 133.95 196.88 131.27 195.28 42.83 246.34" style="fill:#fafafa"></polygon><polygon points="131.27 195.28 45.51 244.78 45.51 87.19 131.27 37.7 131.27 195.28" style="fill:#fff"></polygon><path d="M139,27.37,40.46,84.27V256.69L139,199.8ZM134,196.88,45.51,247.94V87.19L134,36.13Z" style="fill:#f0f0f0"></path><polygon points="133.95 196.88 131.27 195.28 131.27 37.7 133.95 36.13 133.95 196.88" style="fill:#e0e0e0"></polygon><polygon points="45.51 190.01 45.51 193.16 133.95 142.1 131.27 140.5 45.51 190.01" style="fill:#fafafa"></polygon><polygon points="45.51 133 45.51 136.15 133.95 85.09 131.27 83.49 45.51 133" style="fill:#fafafa"></polygon><polygon points="139.01 27.37 136.28 25.82 37.74 82.71 40.46 84.27 139.01 27.37" style="fill:#fafafa"></polygon><polygon points="37.74 82.71 40.46 84.27 40.46 256.69 37.74 255.13 37.74 82.71" style="fill:#e0e0e0"></polygon><polygon points="84.49 64.69 87.21 63.11 87.21 223.87 84.49 222.31 84.49 64.69" style="fill:#e0e0e0"></polygon></g><polygon points="92.27 60.21 87.21 63.11 87.21 223.87 92.27 220.94 92.27 60.21" style="fill:#f0f0f0"></polygon><polygon points="139.01 82.17 139.01 88 40.46 144.9 40.46 139.06 139.01 82.17" style="fill:#f0f0f0"></polygon><polygon points="139.01 139.17 139.01 145 40.46 201.9 40.46 196.07 139.01 139.17" style="fill:#f0f0f0"></polygon><polygon points="87.21 112.07 84.49 110.5 45.51 133 45.51 136.15 87.21 112.07" style="fill:#fafafa"></polygon><polygon points="87.21 169.05 84.49 167.48 45.51 189.98 45.51 193.13 87.21 169.05" style="fill:#fafafa"></polygon></g></g></g><g id="freepik--Pictures--inject-25"><g id="freepik--Picture--inject-25"><g id="freepik--frame--inject-25"><polygon points="414.7 90.24 412.95 91.28 376.95 70.5 378.7 69.45 414.7 90.24" style="fill:#fafafa"></polygon><polygon points="378.7 69.45 412.95 89.22 412.95 53.36 378.7 33.6 378.7 69.45" style="fill:#fff"></polygon><path d="M373.64,72.41,416.26,97V51.44l-42.62-24.6ZM377,32.57l36,20.79V91.28L377,70.5Z" style="fill:#f0f0f0"></path><polygon points="376.95 70.5 378.7 69.45 378.7 33.6 376.95 32.57 376.95 70.5" style="fill:#e0e0e0"></polygon><polygon points="373.64 26.84 375.42 25.82 418.04 50.42 416.26 51.45 373.64 26.84" style="fill:#fafafa"></polygon><polygon points="418.04 50.42 416.26 51.45 416.26 97.02 418.04 96 418.04 50.42" style="fill:#e0e0e0"></polygon></g><g id="freepik--Land--inject-25"><polygon points="380.04 68.38 411.61 86.61 411.61 77.49 403.72 59.27 398.8 63.82 400.57 71.46 389.67 48.15 380.04 59.27 380.04 68.38" style="fill:#f0f0f0"></polygon><path d="M399.1,50.46a5.17,5.17,0,0,1,2.33,4c0,1.49-1,2.09-2.33,1.35a5.18,5.18,0,0,1-2.34-4C396.76,50.32,397.81,49.72,399.1,50.46Z" style="fill:#f0f0f0"></path></g></g><g id="freepik--picture--inject-25"><g id="freepik--frame--inject-25"><polygon points="465.78 140.06 464.03 141.11 428.02 120.32 429.78 119.28 465.78 140.06" style="fill:#fafafa"></polygon><polygon points="429.78 119.28 464.03 139.05 464.02 103.18 429.78 83.43 429.78 119.28" style="fill:#fff"></polygon><path d="M424.71,122.23l42.63,24.61V101.27L424.71,76.66ZM428,82.4l36,20.78v37.93l-36-20.79Z" style="fill:#f0f0f0"></path><polygon points="428.02 120.32 429.78 119.28 429.78 83.43 428.02 82.4 428.02 120.32" style="fill:#e0e0e0"></polygon><polygon points="424.71 76.66 426.49 75.64 469.12 100.25 467.34 101.27 424.71 76.66" style="fill:#fafafa"></polygon><polygon points="469.12 100.25 467.34 101.27 467.34 146.84 469.12 145.82 469.12 100.25" style="fill:#e0e0e0"></polygon></g><g id="freepik--land--inject-25"><polygon points="431.12 118.21 462.69 136.43 462.69 127.32 454.79 109.09 449.88 113.65 451.65 121.29 440.74 97.97 431.12 109.09 431.12 118.21" style="fill:#f0f0f0"></polygon><path d="M450.17,100.29a5.16,5.16,0,0,1,2.34,4c0,1.49-1.05,2.1-2.34,1.35a5.14,5.14,0,0,1-2.33-4C447.84,100.15,448.88,99.54,450.17,100.29Z" style="fill:#f0f0f0"></path></g></g></g><g id="freepik--Plant--inject-25"><g id="freepik--Plants--inject-25"><path d="M439.61,282.71a.55.55,0,0,1-.22,0L433,281.19a.54.54,0,0,1-.38-.32c-.06-.15-5.58-15.39,6.2-36,8.4-14.74,21.56-24.32,29.94-21.8,3.43,1,5.81,3.26,6.54,6.12.8,3.18-.47,6.66-3.42,9.31-.65.59-1.68,1.39-3,2.41-8,6.29-26.83,21-28.86,41.39a.51.51,0,0,1-.23.36A.5.5,0,0,1,439.61,282.71Zm-6-2.42,5.44,1.28c2.37-20.46,21.13-35.16,29.18-41.47,1.28-1,2.3-1.8,2.93-2.37,2.66-2.4,3.82-5.52,3.11-8.35-.65-2.55-2.71-4.46-5.81-5.39-7.89-2.37-20.47,7-28.63,21.31C429.11,264.09,433,278.24,433.61,280.29Z" style="fill:#0D6EFD"></path><path d="M436,281.85h-.08a.54.54,0,0,1-.56-.5c-.47-23.78,17.4-46.69,29.42-51.41a.56.56,0,0,1,.72.27.49.49,0,0,1-.29.66c-11.88,4.66-29.19,27.91-28.75,50.47A.51.51,0,0,1,436,281.85Z" style="fill:#0D6EFD"></path><path d="M433.26,281.2a.49.49,0,0,1-.24,0l-4.31-1.2a.52.52,0,0,1-.36-.33c-.08-.23-7.67-23-2.08-53.56,2.85-15.59,12.72-30.8,23.46-36.16,5.16-2.58,10.24-2.9,15.08-1,2.74,1.1,4.46,2.72,5.1,4.81,1.78,5.79-4.75,14.41-11.65,23.54-4.84,6.39-9.83,13-12.11,18.82a.57.57,0,0,1-.71.3.49.49,0,0,1-.33-.64c2.33-6,7.37-12.62,12.25-19.06,6.75-8.92,13.13-17.35,11.5-22.68-.56-1.82-2-3.18-4.48-4.17-4.52-1.81-9.28-1.5-14.13.92-10.47,5.23-20.09,20.14-22.89,35.45-5.24,28.64,1.14,50.27,1.95,52.83l4,1.12a.49.49,0,0,1,.36.63A.52.52,0,0,1,433.26,281.2Z" style="fill:#0D6EFD"></path><path d="M432.19,266.73h0a.55.55,0,0,1-.6-.47c-3.24-36.79,19-66.25,25.62-71.3a.59.59,0,0,1,.78.06.49.49,0,0,1-.07.72c-6.5,5-28.44,34.05-25.23,70.44A.52.52,0,0,1,432.19,266.73Z" style="fill:#0D6EFD"></path></g></g><g id="freepik--Shadows--inject-25"><path id="freepik--Shadow--inject-25" d="M292.19,280.07l17.55,10.14-144,83L141.15,359H112.94l-49.1,28.35v24.43l80.45,46.45h28.22l49.1-28.35c0-10.86,0-13.58,0-24.44l-17.51-10.11,144-82.94,24.53,14.16,28.26,0L445,301c0-10.84,0-13.57,0-24.42l-80.46-46.45-28.26,0-44.07,25.55C292.17,266.5,292.18,269.23,292.19,280.07Z" style="fill:#e0e0e0"></path><ellipse id="freepik--shadow--inject-25" cx="406.34" cy="376.67" rx="22.51" ry="12.99" style="fill:#e0e0e0"></ellipse></g><g id="freepik--Bottle--inject-25"><g id="freepik--Water--inject-25"><g id="freepik--Jar--inject-25"><path d="M418.6,321a18.61,18.61,0,0,0-2.33-1.13,4,4,0,0,1-2.55-3.68v-4.49l-14.66,0v4.49a4,4,0,0,1-2.55,3.67,18.75,18.75,0,0,0-2.34,1.13c-3.38,1.94-5.07,4.49-5.07,7L389,373.09c0,2.55,1.68,5.11,5.05,7.06,6.75,3.91,17.68,3.92,24.44,0,3.37-1.95,5.06-4.5,5.07-7.05l.06-45.09C423.66,325.5,422,323,418.6,321Z" style="fill:#0D6EFD"></path><path d="M418.6,321a18.61,18.61,0,0,0-2.33-1.13,4,4,0,0,1-2.55-3.68v-4.49l-14.66,0v4.49a4,4,0,0,1-2.55,3.67,18.75,18.75,0,0,0-2.34,1.13c-3.38,1.94-5.07,4.49-5.07,7L389,373.09c0,2.55,1.68,5.11,5.05,7.06,6.75,3.91,17.68,3.92,24.44,0,3.37-1.95,5.06-4.5,5.07-7.05l.06-45.09C423.66,325.5,422,323,418.6,321Z" style="opacity:0.2"></path><path d="M421.38,338c-.24-7.06-28.38-6.3-30-.31l-.06,35.45c0,1.8,1.43,3.67,3.93,5.11a24.8,24.8,0,0,0,22.19,0c2.5-1.44,3.93-3.3,3.94-5.1Z" style="fill:#0D6EFD;opacity:0.6000000000000001"></path><path d="M395.14,379.59c-6.17-3.54-6.16-9.25,0-12.77s16.18-3.51,22.34,0,6.16,9.26,0,12.77S401.31,383.13,395.14,379.59Z" style="opacity:0.2"></path><path d="M415.13,316.41a19.15,19.15,0,0,0-11.74-1.88v-2.85h-4.32v4.49a4,4,0,0,1-2.56,3.67,18.05,18.05,0,0,0-2.34,1.13l-.08,0c-3.32,1.94-5,4.47-5,7L389,373.09c0,2.55,1.67,5.11,5,7.06,4.85,2.81,11.87,3.59,17.94,2.38-14,.94-17.42-5-17.41-9.33l.06-44.15a4.94,4.94,0,0,1,1.29-3.83,9.18,9.18,0,0,0,1.71,1.24c4.81,2.79,12.62,2.8,17.44,0,2.59-1.49,3.79-3.48,3.6-5.43l-.29-.17A6.9,6.9,0,0,0,415.13,316.41Z" style="opacity:0.15"></path><path d="M418.6,321a18.61,18.61,0,0,0-2.33-1.13,4,4,0,0,1-2.55-3.68v-4.49h-1.6c0,6,0,4.73,0,6s2.11,2,3.49,2.76,6,3.22,6.42,5.39.15,6,.15,10.66-.05,32.06-.06,35.13-1.27,7.42-6.91,10.05a19.09,19.09,0,0,0,3.31-1.47c3.38-2,5.06-4.39,5.07-7.08l.06-45.09C423.66,325.5,422,323,418.6,321Z" style="fill:#fff;opacity:0.4"></path><path d="M418.74,318v1.28c0,1.82-1.21,3.65-3.63,5.05-4.82,2.77-12.62,2.76-17.44,0a8.42,8.42,0,0,1-2.71-2.36,4.67,4.67,0,0,1-.89-2.67v-1.33a3.37,3.37,0,0,1,.1-.83,6.62,6.62,0,0,1,3.51-4.21l.18-.09c4.84-2.68,12.52-2.63,17.27.12a6.59,6.59,0,0,1,3.51,4.21A3.55,3.55,0,0,1,418.74,318Z" style="fill:#37474f"></path><path d="M407.4,325.07v-4.54c0-1.79.45.64-2.7.63-2.73,0-5.15-6.3-6.85-8.35l-.18.09a6.62,6.62,0,0,0-3.51,4.21,3.37,3.37,0,0,0-.1.83v1.33a4.67,4.67,0,0,0,.89,2.67,8.42,8.42,0,0,0,2.71,2.36c4.82,2.79,12.62,2.8,17.44,0C411.71,325.66,407.4,326.78,407.4,325.07Z" style="fill:#263238"></path><path d="M397.67,323c-4.81-2.79-4.8-7.3,0-10.07s12.63-2.77,17.44,0,4.81,7.3,0,10.07S402.49,325.76,397.67,323Z" style="fill:#0D6EFD"></path><path d="M418.74,313.72v2.55a3.23,3.23,0,0,1-.1.87,6.63,6.63,0,0,1-3.52,4.19,17.14,17.14,0,0,1-7.72,2,18.34,18.34,0,0,1-9.73-2.07A8.46,8.46,0,0,1,395,319a4.66,4.66,0,0,1-.8-1.84,3.39,3.39,0,0,1-.1-.84v-2.61c0-1.83,1.2-3.65,3.61-5,.22-.12.43-.24.66-.35,4.85-2.42,12.19-2.29,16.79.37C417.55,310.06,418.76,311.89,418.74,313.72Z" style="fill:#37474f"></path><path d="M397.68,318.64c-4.81-2.79-4.81-7.29,0-10.07s12.63-2.76,17.44,0,4.8,7.29,0,10.07S402.49,321.43,397.68,318.64Z" style="fill:#455a64"></path><path d="M395,319a8.46,8.46,0,0,0,2.7,2.35,18.34,18.34,0,0,0,9.73,2.07h0c0-.9.54-1.58-2.69-2.21-2.68-.52-6.64-1.64-8.49-4.57-1.69-2.7-.71-6.25,2.13-8.31-.23.11-.44.23-.66.35-2.41,1.38-3.61,3.2-3.61,5v2.61a3.39,3.39,0,0,0,.1.84A4.66,4.66,0,0,0,395,319Z" style="fill:#263238"></path></g><path d="M402.67,307.17l0,5.61a1.09,1.09,0,0,0,0,.26,2,2,0,0,0,1.07,1.29,5.21,5.21,0,0,0,2.34.63,5.5,5.5,0,0,0,3-.61,2.58,2.58,0,0,0,.83-.71,1.27,1.27,0,0,0,.24-.55.77.77,0,0,0,0-.26l0-5.63a1.87,1.87,0,0,0-1.09-1.54l-.2-.11a5.93,5.93,0,0,0-5.12.08A1.86,1.86,0,0,0,402.67,307.17Z" style="fill:#0D6EFD"></path><path d="M402.67,307.17l0,5.61a1.09,1.09,0,0,0,0,.26,2,2,0,0,0,1.07,1.29,5.21,5.21,0,0,0,2.34.63,5.5,5.5,0,0,0,3-.61,2.58,2.58,0,0,0,.83-.71,1.27,1.27,0,0,0,.24-.55.77.77,0,0,0,0-.26l0-5.63a1.87,1.87,0,0,0-1.09-1.54l-.2-.11a5.93,5.93,0,0,0-5.12.08A1.86,1.86,0,0,0,402.67,307.17Z" style="opacity:0.35000000000000003"></path><path d="M402.67,307.15c0,1.19,1.67,2.17,3.75,2.18s3.76-.95,3.77-2.14-1.67-2.17-3.75-2.18S402.68,306,402.67,307.15Z" style="fill:#0D6EFD"></path><path d="M405.1,307.16c0,.43.59.77,1.33.78s1.33-.34,1.33-.76-.59-.77-1.33-.78S405.1,306.74,405.1,307.16Z" style="fill:#0D6EFD;opacity:0.5"></path><path d="M405.1,307.16c0,.43.59.77,1.33.78s1.33-.34,1.33-.76-.59-.77-1.33-.78S405.1,306.74,405.1,307.16Z" style="opacity:0.30000000000000004"></path><path d="M401.75,306.55l0,1.91a1.84,1.84,0,0,0,0,.33,2.52,2.52,0,0,0,1.33,1.6,6.61,6.61,0,0,0,2.93.8,7,7,0,0,0,3.7-.77,3.26,3.26,0,0,0,1-.88,1.82,1.82,0,0,0,.31-.7,1.12,1.12,0,0,0,0-.32l0-1.93a2.34,2.34,0,0,0-1.36-1.92l-.25-.13a7.39,7.39,0,0,0-6.38.1A2.32,2.32,0,0,0,401.75,306.55Z" style="fill:#0D6EFD"></path><path d="M401.75,306.55l0,1.91a1.84,1.84,0,0,0,0,.33,2.52,2.52,0,0,0,1.33,1.6,6.61,6.61,0,0,0,2.93.8,7,7,0,0,0,3.7-.77,3.26,3.26,0,0,0,1-.88,1.82,1.82,0,0,0,.31-.7,1.12,1.12,0,0,0,0-.32l0-1.93a2.34,2.34,0,0,0-1.36-1.92l-.25-.13a7.39,7.39,0,0,0-6.38.1A2.32,2.32,0,0,0,401.75,306.55Z" style="opacity:0.2"></path><path d="M401.75,306.53c0,1.49,2.08,2.7,4.67,2.72s4.69-1.18,4.7-2.67-2.09-2.7-4.67-2.72S401.76,305,401.75,306.53Z" style="fill:#0D6EFD"></path><path d="M404.77,306.55c0,.52.74,1,1.66,1s1.66-.42,1.67-.95-.74-1-1.66-1S404.77,306,404.77,306.55Z" style="fill:#0D6EFD;opacity:0.5"></path><path d="M404.77,306.55c0,.52.74,1,1.66,1s1.66-.42,1.67-.95-.74-1-1.66-1S404.77,306,404.77,306.55Z" style="opacity:0.30000000000000004"></path></g></g><g id="freepik--Character--inject-25"><g id="freepik--Dumbbell--inject-25"><polygon points="331.69 301.84 328.93 295.44 373.01 291.5 391.65 296.49 331.69 301.84" style="fill:#37474f"></polygon><polygon points="373.01 232.73 373.01 291.5 391.65 296.49 391.65 223.78 373.01 232.73" style="fill:#455a64"></polygon><polygon points="328.93 177.9 341.46 161.34 391.65 223.78 373.01 232.73 328.93 177.9" style="fill:#37474f"></polygon><polygon points="284.85 181.83 281.49 166.7 341.46 161.34 328.93 177.9 284.85 181.83" style="fill:#263238"></polygon><polygon points="281.49 166.7 281.49 240.42 331.69 301.84 328.93 295.44 284.85 240.6 284.85 181.83 281.49 166.7"></polygon><polygon points="284.85 240.6 284.85 181.83 328.93 177.9 373.01 232.73 373.01 291.5 328.93 295.44 284.85 240.6" style="fill:#455a64"></polygon><polygon points="391.65 296.49 426.45 276.4 426.44 203.69 391.65 223.78 391.65 296.49" style="fill:#455a64"></polygon><polygon points="341.46 161.34 391.65 223.78 426.44 203.69 376.25 141.25 341.46 161.34" style="fill:#37474f"></polygon><polygon points="281.49 166.7 316.29 146.61 376.25 141.25 341.46 161.34 281.49 166.7" style="fill:#263238"></polygon><path d="M391.65,296.49c.27-12.12.72-24.24.82-36.36s.39-24.23.4-36.35v-.43l-.27-.34-25-31.29-25.24-31.1-.4-.49-.6.06c-20,2-39.93,4.14-59.87,6.51,19.84-1.19,39.65-2.63,59.45-4.17l24.57,30.87,24.93,30.81c0,12,.24,23.95.4,35.92S391.39,284.37,391.65,296.49Z" style="opacity:0.2"></path><polygon points="376.25 141.25 390.86 144.11 432.64 196.09 426.44 203.69 376.25 141.25" style="fill:#37474f"></polygon><polygon points="432.65 256.63 426.45 276.4 426.44 203.69 432.64 196.09 432.65 256.63" style="fill:#455a64"></polygon><g style="opacity:0.2"><path d="M426.45,276.4c.46-12.12.84-24.24,1-36.35s.21-24.24.33-36.36v-.47l-.3-.38q-12.56-15.6-25.3-31.05t-25.95-30.54q11.92,16.13,24.24,31.91t24.9,31.37l-.3-.84c.13,12.12.07,24.24.34,36.36S426,264.28,426.45,276.4Z"></path></g><polygon points="284.85 181.83 327.76 180.79 369.94 233.87 370.52 289.81 328.93 295.44 373.01 291.5 373.01 232.73 328.93 177.9 284.85 181.83" style="fill:#fff;opacity:0.1"></polygon><path d="M404.82,270.9a1.9,1.9,0,0,1-.76.59.73.73,0,0,1-.67,0l-6.24-3.43-.52-.33a.76.76,0,0,1-.31-.69v-4a1.37,1.37,0,0,1,.31-.79,2.18,2.18,0,0,1,.71-.68l24.41-14.09a.9.9,0,0,1,.71-.15.41.41,0,0,1,.3.45v4.28a1.38,1.38,0,0,1-.3.8,2.25,2.25,0,0,1-.71.67l-16.51,9.53,3.4,1.93a.48.48,0,0,1,.2.54,1.59,1.59,0,0,1-.39.81Z" style="fill:#263238"></path><path d="M396,249a13.5,13.5,0,0,1,.82-4.69,18.34,18.34,0,0,1,2.23-4.22,21.46,21.46,0,0,1,3.27-3.62,30,30,0,0,1,3.91-2.93c1.08-.66,2.22-1.35,3.4-2s2.3-1.31,3.33-1.86a19.14,19.14,0,0,1,3.91-1.59,6.46,6.46,0,0,1,3.26-.15,3.66,3.66,0,0,1,2.23,1.64,7,7,0,0,1,.84,3.74,13.57,13.57,0,0,1-.84,4.7,18,18,0,0,1-2.23,4.22,21,21,0,0,1-3.26,3.61,29.09,29.09,0,0,1-3.91,2.93c-1,.64-2.14,1.31-3.33,2s-2.32,1.32-3.4,1.9a18.53,18.53,0,0,1-3.91,1.58,6.51,6.51,0,0,1-3.27.16,3.73,3.73,0,0,1-2.23-1.64A7,7,0,0,1,396,249Zm16.77-13.18c-2.15,1.15-4.26,2.37-6.35,3.67a19.91,19.91,0,0,0-1.74,1.25,8.89,8.89,0,0,0-1.38,1.36,6,6,0,0,0-.92,1.59,4.75,4.75,0,0,0-.34,1.82,2.44,2.44,0,0,0,.34,1.45,1.25,1.25,0,0,0,.92.51,3.65,3.65,0,0,0,1.38-.21,11,11,0,0,0,1.74-.77c2.09-1.1,4.2-2.32,6.35-3.67a17,17,0,0,0,1.73-1.21,8.24,8.24,0,0,0,1.38-1.39,6.3,6.3,0,0,0,.93-1.6,4.77,4.77,0,0,0,.34-1.83,2.43,2.43,0,0,0-.34-1.44,1.32,1.32,0,0,0-.93-.53,3.34,3.34,0,0,0-1.38.21A11,11,0,0,0,412.72,235.81Z" style="fill:#263238"></path><path d="M166.93,361.23c-3.52,2-8.37,1.73-13.73-1.36-10.71-6.19-19.4-21.24-19.4-33.61,0-6.19,2.17-10.54,5.68-12.57l164.77-95.12c3.51-2,8.36-1.74,13.72,1.36,10.72,6.19,19.4,21.23,19.4,33.61,0,6.19-2.17,10.53-5.68,12.56Z" style="fill:#f0f0f0"></path><path d="M133.8,326.26c0-6.19,2.17-10.54,5.68-12.57s8.37-1.73,13.72,1.36c10.72,6.19,19.41,21.24,19.41,33.62,0,6.18-2.17,10.53-5.68,12.56s-8.37,1.73-13.73-1.36C142.49,353.68,133.8,338.63,133.8,326.26Z" style="fill:#fafafa"></path><path d="M210.75,336.17l6.54-3.77c3.47-2,5.69-6.38,5.67-12.54,0-12.38-8.67-27.44-19.4-33.6-5.32-3.1-10.22-3.37-13.69-1.36l-6.55,3.78c3.48-2,8.37-1.75,13.7,1.36,10.73,6.16,19.42,21.22,19.39,33.59C216.44,329.8,214.22,334.17,210.75,336.17Z" style="fill:#e0e0e0"></path><path d="M300.41,284.09l6.54-3.78c3.48-2,5.7-6.38,5.67-12.54,0-12.37-8.66-27.44-19.39-33.6-5.33-3.1-10.22-3.37-13.7-1.36L273,236.59c3.47-2,8.37-1.74,13.69,1.36,10.73,6.16,19.43,21.22,19.4,33.59C306.11,277.71,303.89,282.08,300.41,284.09Z" style="fill:#e0e0e0"></path><path d="M238.87,319.62l39.4-22.75c3.48-2,5.7-6.38,5.67-12.54,0-12.38-8.67-27.44-19.4-33.6-5.32-3.1-10.21-3.37-13.69-1.36l-39.4,22.75c3.48-2,8.37-1.74,13.69,1.36,10.73,6.16,19.43,21.22,19.4,33.59C244.57,313.24,242.35,317.61,238.87,319.62Z" style="fill:#e0e0e0"></path><polygon points="108.58 430.66 105.82 424.25 149.9 420.31 168.55 425.3 108.58 430.66" style="fill:#37474f"></polygon><polygon points="149.9 361.55 149.9 420.31 168.55 425.3 168.54 352.59 149.9 361.55" style="fill:#455a64"></polygon><polygon points="105.82 306.71 118.36 290.16 168.54 352.59 149.9 361.55 105.82 306.71" style="fill:#37474f"></polygon><polygon points="61.74 310.65 58.39 295.51 118.36 290.16 105.82 306.71 61.74 310.65" style="fill:#263238"></polygon><polygon points="58.39 295.51 58.39 369.23 108.58 430.66 105.82 424.25 61.74 369.42 61.74 310.65 58.39 295.51"></polygon><polygon points="61.74 369.42 61.74 310.65 105.82 306.71 149.9 361.55 149.9 420.31 105.82 424.25 61.74 369.42" style="fill:#455a64"></polygon><polygon points="168.55 425.3 203.34 405.22 203.34 332.51 168.54 352.59 168.55 425.3" style="fill:#455a64"></polygon><polygon points="118.36 290.16 168.54 352.59 203.34 332.51 153.15 270.07 118.36 290.16" style="fill:#37474f"></polygon><polygon points="58.39 295.51 93.18 275.43 153.15 270.07 118.36 290.16 58.39 295.51" style="fill:#263238"></polygon><path d="M168.55,425.3c.26-12.11.71-24.23.81-36.35s.4-24.24.4-36.36v-.42l-.27-.34-25-31.3-25.25-31.09-.39-.49-.61.06c-20,2-39.93,4.14-59.86,6.5,19.83-1.19,39.64-2.63,59.44-4.16l24.57,30.87L167.33,353c0,12,.24,24,.4,35.92C167.83,401.07,168.29,413.19,168.55,425.3Z" style="opacity:0.2"></path><polygon points="153.15 270.07 167.75 272.93 209.54 324.91 203.34 332.51 153.15 270.07" style="fill:#37474f"></polygon><polygon points="209.54 385.45 203.34 405.22 203.34 332.51 209.54 324.91 209.54 385.45" style="fill:#455a64"></polygon><g style="opacity:0.2"><path d="M203.34,405.22c.47-12.12.84-24.24,1-36.36s.21-24.24.33-36.35V332l-.3-.38q-12.55-15.6-25.3-31.06t-25.94-30.53q11.91,16.13,24.24,31.9t24.89,31.38l-.29-.84c.12,12.12.06,24.23.33,36.35S202.87,393.1,203.34,405.22Z"></path></g><polygon points="61.74 310.65 104.66 309.61 146.83 362.68 147.41 418.63 105.82 424.25 149.9 420.31 149.9 361.55 105.82 306.71 61.74 310.65" style="fill:#fff;opacity:0.1"></polygon><path d="M181.7,399.72a1.81,1.81,0,0,1-.75.59.75.75,0,0,1-.68,0L174,396.91c-.15-.08-.32-.2-.52-.33a.79.79,0,0,1-.31-.69v-4a1.45,1.45,0,0,1,.31-.79,2.21,2.21,0,0,1,.72-.68l24.4-14.09a.92.92,0,0,1,.72-.15.42.42,0,0,1,.3.45v4.29a1.42,1.42,0,0,1-.3.79,2.28,2.28,0,0,1-.72.67l-16.51,9.53,3.4,1.93a.49.49,0,0,1,.21.54,1.78,1.78,0,0,1-.4.82Z" style="fill:#263238"></path><path d="M172.83,377.81a13.28,13.28,0,0,1,.83-4.69,18.12,18.12,0,0,1,2.22-4.22,21.52,21.52,0,0,1,3.28-3.62,30.1,30.1,0,0,1,3.9-2.93c1.09-.66,2.23-1.35,3.4-2s2.3-1.31,3.33-1.86a19.14,19.14,0,0,1,3.91-1.59,6.5,6.5,0,0,1,3.27-.15,3.62,3.62,0,0,1,2.22,1.65,6.82,6.82,0,0,1,.84,3.73,13.4,13.4,0,0,1-.84,4.71A18.05,18.05,0,0,1,197,371a21.46,21.46,0,0,1-3.27,3.62,29.88,29.88,0,0,1-3.91,2.92c-1,.65-2.14,1.31-3.33,2s-2.31,1.32-3.4,1.9a18.67,18.67,0,0,1-3.9,1.58,6.55,6.55,0,0,1-3.28.16,3.64,3.64,0,0,1-2.22-1.64A6.9,6.9,0,0,1,172.83,377.81Zm16.77-13.18c-2.14,1.15-4.25,2.37-6.35,3.67a19.91,19.91,0,0,0-1.74,1.25,8.94,8.94,0,0,0-1.38,1.37,6.4,6.4,0,0,0-.92,1.58,4.75,4.75,0,0,0-.34,1.82,2.44,2.44,0,0,0,.34,1.45,1.29,1.29,0,0,0,.92.51,3.27,3.27,0,0,0,1.38-.21,10.12,10.12,0,0,0,1.74-.77c2.1-1.1,4.21-2.32,6.35-3.67a16.66,16.66,0,0,0,1.74-1.21,9.06,9.06,0,0,0,1.38-1.39,6.7,6.7,0,0,0,.92-1.59,4.86,4.86,0,0,0,.34-1.84,2.43,2.43,0,0,0-.34-1.44,1.28,1.28,0,0,0-.92-.52,3.12,3.12,0,0,0-1.38.2A11.64,11.64,0,0,0,189.6,364.63Z" style="fill:#263238"></path></g><g id="freepik--character--inject-25"><g id="freepik--character--inject-25"><g id="freepik--Bottom--inject-25"><path d="M328.46,315.61s-4.75,30.08-5.37,39a16.46,16.46,0,0,0,1.55,9.44,53.81,53.81,0,0,0,3.48,7.43c.42.76-14.6,8.07-16.54,7.48-5.07-1.57-7.11-7.4-9.11-11.73-1.53-3.32-.43-4.95-.51-8.48-.08-3.94-5.21-38.42-5.82-42.32C302.87,309.52,320.61,313.12,328.46,315.61Z" style="fill:#ffbda7"></path><path d="M299,373.62a10.66,10.66,0,0,0,.69,4.23c.46,1.43,5.38,5,7.08,7.34s1.92,3.32,3.85,6.55c2.14,3.58,3.24,7.94,13,11.7s16.48,2.37,21.15,1,6.16-3.64,6.16-3.64,1.77-5.61-1.31-7S299,373.62,299,373.62Z" style="fill:#263238"></path><path d="M324.65,361c.72.76,1.07,2.88,1.37,3.86,1,3.3,3.46,6.39,5.67,9,10.45,12.36,20.68,12.4,20.08,22.79-.31,2.9-5.88,7.09-18.56,7-6.48,0-16.13-4.74-18.91-8.9s-3.89-7.75-6.14-10.8-7.93-6.86-9.15-10.39a14.83,14.83,0,0,1-.29-6.53c.22-1.76,1.32-5.11,1.58-6.86.29-1.9,0-3,1.5-3.13l.63,2.76c1.31,4.57,2.23,4.31,3.88,5.53s3.06,3.23,4.49,4.85c-.73-3.1-1.95-5.08-.31-6.54s3.78-2.16,8-2.79S324,360.36,324.65,361Z" style="fill:#0D6EFD"></path><path d="M324.65,361c.72.76,1.07,2.88,1.37,3.86,1,3.3,3.46,6.39,5.67,9,10.45,12.36,20.68,12.4,20.08,22.79-.31,2.9-5.88,7.09-18.56,7-6.48,0-16.13-4.74-18.91-8.9s-3.89-7.75-6.14-10.8-7.93-6.86-9.15-10.39a14.83,14.83,0,0,1-.29-6.53c.22-1.76,1.32-5.11,1.58-6.86.29-1.9,0-3,1.5-3.13l.63,2.76c1.31,4.57,2.23,4.31,3.88,5.53s3.06,3.23,4.49,4.85c-.73-3.1-1.95-5.08-.31-6.54s3.78-2.16,8-2.79S324,360.36,324.65,361Z" style="opacity:0.4"></path><path d="M333.21,403.71c-6.48,0-16.13-4.74-18.91-8.9a46.68,46.68,0,0,1-2.49-4.29c.22.25.41.53.6.73.43.46.86.91,1.31,1.34a14.27,14.27,0,0,0,6.15,3.83c2.1.52,7.28,2,9-.07,1-1.15.61-3.07-.36-4.57-.41-.63-1.67-2.14-1.67-2.14a23.6,23.6,0,0,1,6.52-3.7,23.16,23.16,0,0,1,6.83-1.42,9.88,9.88,0,0,0,2.59,2.2,8.26,8.26,0,0,0,3.55,1,5.26,5.26,0,0,0,1.23-.28c2.77,2.39,4.44,4.92,4.19,9.28C351.46,399.58,345.89,403.77,333.21,403.71Z" style="opacity:0.30000000000000004"></path><path d="M331.69,373.89a53.39,53.39,0,0,0,9.34,8.62c2.29,3.66,1.41,4.59-.35,3.42s-6.89-8.77-11.27-14.87C330.15,372.05,330.93,373,331.69,373.89Z" style="fill:#37474f"></path><path d="M303.67,366.16a8.84,8.84,0,0,1-3.6-4.81c.1-.41.18-.8.23-1.12.29-1.9,0-3,1.5-3.13l.63,2.76c1.31,4.57,2.23,4.31,3.88,5.53s3.06,3.23,4.49,4.85c4.41,5.53,5.31,8.11,9.95,12.74s8.88,6.3,8.6,7.25-2,1.95-6.32-1-9.76-10.19-12-14S306.06,367.62,303.67,366.16Z" style="fill:#37474f"></path><path d="M326.93,390.28a.58.58,0,0,0,.35-.15,21.28,21.28,0,0,1,13.28-4.82.65.65,0,1,0-.05-1.3,22.52,22.52,0,0,0-14.06,5.13.65.65,0,0,0-.08.92A.64.64,0,0,0,326.93,390.28Z" style="fill:#ebebeb"></path><path d="M323.18,386.28a.81.81,0,0,0,.35-.14,23.43,23.43,0,0,1,14.06-4.92.65.65,0,0,0,.64-.69.67.67,0,0,0-.7-.64,24.74,24.74,0,0,0-14.84,5.21.67.67,0,0,0,.49,1.18Z" style="fill:#ebebeb"></path><path d="M318.42,382.67a.67.67,0,0,0,.38-.16,25.83,25.83,0,0,1,15.5-5.41.75.75,0,0,0,.71-.77.74.74,0,0,0-.77-.7,27.32,27.32,0,0,0-16.36,5.74.73.73,0,0,0-.12,1A.75.75,0,0,0,318.42,382.67Z" style="fill:#ebebeb"></path><path d="M314.94,378.83a.7.7,0,0,0,.38-.15,25.27,25.27,0,0,1,15.2-5.31.74.74,0,0,0,.69-.75.72.72,0,0,0-.75-.69,26.75,26.75,0,0,0-16,5.63.74.74,0,0,0-.11,1A.71.71,0,0,0,314.94,378.83Z" style="fill:#ebebeb"></path><path d="M312.2,374.29a.76.76,0,0,0,.37-.16,25.36,25.36,0,0,1,15.2-5.31.72.72,0,1,0-.06-1.44,26.74,26.74,0,0,0-16,5.63.72.72,0,0,0-.11,1A.73.73,0,0,0,312.2,374.29Z" style="fill:#ebebeb"></path><path d="M259.07,219.12,220,221.63c-2.15,18.82.68,38.24,7.46,43.91,18,15.07,64.55,22.34,64.55,22.34a75.7,75.7,0,0,0,.73,18.82c1.22,8.47,3.92,23,6.25,33.31,6.55,5,23.77,2.47,26.35-.91,0,0,5-26.57,7.24-51.62,1.35-15.25.39-21.45-7.9-30.5C312.3,243.46,259.07,219.12,259.07,219.12Z" style="fill:#37474f"></path><path d="M277.34,275c-6.8-8.5-25.18-28-25.18-28s6.52-7.27,5.56-19.75l-24.08,19.48,38.61,37c4.2,1,8,1.84,11.16,2.48A31.62,31.62,0,0,0,277.34,275Z" style="fill:#263238"></path><path d="M278.44,343.55s-4,32.92-4.4,37.35a39.68,39.68,0,0,0,.56,10.73,18.69,18.69,0,0,0,2.23,5.78c.75,1.42,2.54,3.86,1.41,5.4a4.78,4.78,0,0,1-1.66,1.29c-1.32.71-2.77,1.13-4.08,1.83a14.13,14.13,0,0,1-4.93,1.27,14.82,14.82,0,0,1-6-.32c-5.07-1.57-7.12-7.4-9.11-11.73-1.53-3.32-.43-4.95-.51-8.48-.08-3.94-5.22-38.42-5.83-42.32C252.85,337.46,270.59,341.06,278.44,343.55Z" style="fill:#ffbda7"></path><path d="M249,401.56a10.85,10.85,0,0,0,.7,4.23c.46,1.43,5.37,5,7.08,7.34s1.91,3.32,3.85,6.55c2.14,3.58,3.24,7.94,13,11.7s16.48,2.37,21.15,1,6.16-3.64,6.16-3.64,1.77-5.61-1.3-7S249,401.56,249,401.56Z" style="fill:#263238"></path><path d="M274.63,389c.72.76,1.07,2.88,1.37,3.86,1,3.3,3.46,6.39,5.66,9,10.46,12.36,20.69,12.4,20.08,22.79-.3,2.9-5.87,7.09-18.55,7-6.48,0-16.14-4.74-18.91-8.9s-3.89-7.75-6.15-10.8-7.93-6.86-9.15-10.39a14.83,14.83,0,0,1-.28-6.53c.22-1.76,1.31-5.11,1.58-6.86.29-1.9,0-3,1.5-3.13l.63,2.76c1.3,4.57,2.23,4.31,3.88,5.53s3.06,3.23,4.49,4.85c-.74-3.1-1.95-5.08-.31-6.54s3.77-2.16,8-2.79S274,388.3,274.63,389Z" style="fill:#0D6EFD"></path><path d="M274.63,389c.72.76,1.07,2.88,1.37,3.86,1,3.3,3.46,6.39,5.66,9,10.46,12.36,20.69,12.4,20.08,22.79-.3,2.9-5.87,7.09-18.55,7-6.48,0-16.14-4.74-18.91-8.9s-3.89-7.75-6.15-10.8-7.93-6.86-9.15-10.39a14.83,14.83,0,0,1-.28-6.53c.22-1.76,1.31-5.11,1.58-6.86.29-1.9,0-3,1.5-3.13l.63,2.76c1.3,4.57,2.23,4.31,3.88,5.53s3.06,3.23,4.49,4.85c-.74-3.1-1.95-5.08-.31-6.54s3.77-2.16,8-2.79S274,388.3,274.63,389Z" style="opacity:0.4"></path><path d="M283.19,431.65c-6.48,0-16.14-4.74-18.91-8.9a44.49,44.49,0,0,1-2.49-4.29c.21.25.41.53.6.73.42.46.86.91,1.31,1.34a14.24,14.24,0,0,0,6.14,3.83c2.11.52,7.29,2,9-.07,1-1.15.61-3.07-.36-4.57-.41-.63-1.67-2.14-1.67-2.14a23.6,23.6,0,0,1,6.52-3.7,23.08,23.08,0,0,1,6.82-1.42,10.1,10.1,0,0,0,2.6,2.2,8.22,8.22,0,0,0,3.55,1,5.38,5.38,0,0,0,1.23-.28c2.77,2.39,4.44,4.92,4.18,9.28C301.44,427.52,295.87,431.71,283.19,431.65Z" style="opacity:0.30000000000000004"></path><path d="M281.66,401.83a53.77,53.77,0,0,0,9.35,8.62c2.29,3.66,1.41,4.59-.35,3.42s-6.89-8.77-11.27-14.87C280.13,400,280.91,400.94,281.66,401.83Z" style="fill:#37474f"></path><path d="M253.65,394.1a8.84,8.84,0,0,1-3.6-4.81c.1-.41.18-.8.23-1.12.29-1.9,0-3,1.5-3.13l.63,2.76c1.3,4.57,2.23,4.31,3.88,5.53s3.06,3.23,4.49,4.85c4.41,5.53,5.3,8.11,9.94,12.74s8.88,6.3,8.6,7.25-2,1.95-6.31-1-9.76-10.19-12-14S256,395.56,253.65,394.1Z" style="fill:#37474f"></path><path d="M276.91,418.22a.58.58,0,0,0,.35-.15,21.26,21.26,0,0,1,13.28-4.82.65.65,0,0,0-.05-1.3,22.55,22.55,0,0,0-14.07,5.13.65.65,0,0,0,.49,1.14Z" style="fill:#ebebeb"></path><path d="M273.16,414.22a.73.73,0,0,0,.34-.14,23.45,23.45,0,0,1,14.06-4.92.64.64,0,0,0,.64-.69.66.66,0,0,0-.69-.64A24.74,24.74,0,0,0,272.67,413a.67.67,0,0,0,.49,1.18Z" style="fill:#ebebeb"></path><path d="M268.4,410.61a.61.61,0,0,0,.37-.16A25.88,25.88,0,0,1,284.28,405a.74.74,0,0,0,.7-.77.73.73,0,0,0-.76-.7,27.37,27.37,0,0,0-16.37,5.74.73.73,0,0,0,.55,1.3Z" style="fill:#ebebeb"></path><path d="M264.92,406.77a.67.67,0,0,0,.37-.15,25.32,25.32,0,0,1,15.21-5.31.73.73,0,0,0,.68-.75.71.71,0,0,0-.74-.69,26.7,26.7,0,0,0-16.05,5.63.72.72,0,0,0-.11,1A.71.71,0,0,0,264.92,406.77Z" style="fill:#ebebeb"></path><path d="M262.18,402.23a.76.76,0,0,0,.37-.16,25.36,25.36,0,0,1,15.2-5.31.72.72,0,1,0-.06-1.44,26.74,26.74,0,0,0-16,5.63.73.73,0,0,0-.12,1A.76.76,0,0,0,262.18,402.23Z" style="fill:#ebebeb"></path><path d="M282.56,308.49c1.35-15.25.39-21.45-7.9-30.5C262.28,264.47,244,247.21,244,247.21c5.51-4.87,13.78-9.53,15-28.09-.14-5.44-13.08-10-13.08-10H180.94a95.38,95.38,0,0,0-4.23,10c-5.89,16.47-3.79,39,11.44,50.73,24.33,18.77,54.52,35.57,54.52,35.57-1.13,5.65-1.3,13,0,22.29,1.23,8.47,3.8,26.4,6.13,36.67,6.54,5,24.86,2.64,27.44-.74C276.28,363.64,280.34,333.54,282.56,308.49Z" style="fill:#37474f"></path><path d="M254.08,336.3c-.1-2.12-.19-3.92-.28-5.52a158.37,158.37,0,0,1-.23-17c0-.53.07-1.19.12-1.95.27-3.83.69-9.62-1.28-12.63-3.39-5.22-10.11-9.48-17.22-14-3.18-2-6.46-4.1-9.66-6.39-3.63-2.6-7-4.85-10.17-7-12.15-8.24-20.17-13.69-23.11-23.11l-.47-1.52c-3.33-10.74-5-16.26-17.06-20.76-.06.31-.13.63-.19,1,11.44,4.32,13,9.37,16.33,20.09l.48,1.53c3,9.74,11.61,15.56,23.48,23.61,3.21,2.18,6.53,4.43,10.15,7,3.22,2.3,6.52,4.4,9.71,6.42,7,4.46,13.65,8.67,16.93,13.71,1.79,2.74,1.37,8.57,1.12,12,0,.77-.1,1.44-.12,2a160,160,0,0,0,.23,17.09c.09,1.6.18,3.4.28,5.52.06,1.17.12,2.29.18,3.37.36,6.27.61,10.8-1.55,12.9-1,1-2.63,1.46-4.94,1.44.06.32.11.64.17,1,2.49,0,4.24-.56,5.44-1.71,2.48-2.4,2.21-7.12,1.84-13.65Q254.17,338.05,254.08,336.3Z" style="fill:#263238"></path></g></g><path d="M190.61,59.79c-4.74,3.36-7.44,9-8.66,14.65S180.84,86,180.62,91.78a11.09,11.09,0,0,1-2.16,6.93,58.28,58.28,0,0,0-3.88,5,12.25,12.25,0,0,0-.93,10.33c.74,2,2,3.91,1.9,6-.15,2.66-2.4,4.63-3.84,6.86a13.85,13.85,0,0,0-1.09,12.19,17.32,17.32,0,0,0,6.27,7.88c3.09,2.2,5.53,4.2,9.35,5.28a32.72,32.72,0,0,0,15.61.52,20.47,20.47,0,0,0,10.2-5c3.58-3.52,5.13-8.66,5.58-13.66,1-10.63-2.41-21.09-5.25-31.37s-5.17-21.25-2.21-31.5c1-3.36,3.12-9.15.51-12.28-2.05-2.47-8.33-2.58-11.2-2.29A18.51,18.51,0,0,0,190.61,59.79Z" style="fill:#263238"></path><path d="M207,55.83a9.57,9.57,0,0,0-3.54,1,14.92,14.92,0,0,0-4.28,3.43,18.73,18.73,0,0,0-2.82,4.07,9,9,0,0,0-1.09,5.46c.79,4.53,5.95,4.91,9.54,3.69a13,13,0,0,0,7.44-6.31A10.76,10.76,0,0,0,213.57,62c-.08-2.86-1.88-5.63-4.8-6.09A8.33,8.33,0,0,0,207,55.83Z" style="fill:#0D6EFD"></path><g id="freepik--Top--inject-25"><path d="M241.76,125.65c8.54-.12,15.91,2.72,19.39,8.79s6.05,15.78,7.44,18.77,3.33,5.32,5.92,11.36c2.16,5.07,5,13.49,5,13.49l29.92-7.39,4.68,11.69s-9.76,6.4-16.4,10.25A127,127,0,0,1,278.28,202c-4.69,1.68-9,2.76-12.28-1.13s-19.84-36.16-19.84-36.16Z" style="fill:#ffbda7"></path><g id="freepik--dumbbell--inject-25"><polygon points="332.17 169.47 331.72 168.41 339 167.77 342.08 168.6 332.17 169.47" style="fill:#0D6EFD"></polygon><polygon points="339.03 158.06 339 167.77 342.08 168.6 342.11 156.59 339.03 158.06" style="fill:#0D6EFD"></polygon><polygon points="339.03 158.06 339 167.77 342.08 168.6 342.11 156.59 339.03 158.06" style="fill:#fff;opacity:0.1"></polygon><polygon points="331.76 148.98 333.84 146.25 342.11 156.59 339.03 158.06 331.76 148.98" style="fill:#0D6EFD"></polygon><polygon points="331.76 148.98 333.84 146.25 342.11 156.59 339.03 158.06 331.76 148.98" style="fill:#fff;opacity:0.30000000000000004"></polygon><polygon points="324.48 149.62 323.93 147.12 333.84 146.25 331.76 148.98 324.48 149.62" style="fill:#0D6EFD"></polygon><polygon points="324.48 149.62 323.93 147.12 333.84 146.25 331.76 148.98 324.48 149.62" style="fill:#fff;opacity:0.2"></polygon><polygon points="323.93 147.12 323.9 159.3 332.17 169.47 331.72 168.41 324.45 159.33 324.48 149.62 323.93 147.12" style="fill:#0D6EFD"></polygon><polygon points="323.93 147.12 323.9 159.3 332.17 169.47 331.72 168.41 324.45 159.33 324.48 149.62 323.93 147.12" style="opacity:0.2"></polygon><polygon points="324.45 159.33 324.48 149.62 331.76 148.98 339.03 158.06 339 167.77 331.72 168.41 324.45 159.33" style="fill:#0D6EFD"></polygon><polygon points="324.45 159.33 324.48 149.62 331.76 148.98 339.03 158.06 339 167.77 331.72 168.41 324.45 159.33" style="opacity:0.1"></polygon><polygon points="342.08 168.6 347.84 165.3 347.87 153.28 342.11 156.59 342.08 168.6" style="fill:#0D6EFD"></polygon><polygon points="342.08 168.6 347.84 165.3 347.87 153.28 342.11 156.59 342.08 168.6" style="fill:#fff;opacity:0.1"></polygon><polygon points="333.84 146.25 342.11 156.59 347.87 153.28 339.59 142.94 333.84 146.25" style="fill:#0D6EFD"></polygon><polygon points="333.84 146.25 342.11 156.59 347.87 153.28 339.59 142.94 333.84 146.25" style="fill:#fff;opacity:0.30000000000000004"></polygon><polygon points="323.93 147.12 329.68 143.81 339.59 142.94 333.84 146.25 323.93 147.12" style="fill:#0D6EFD"></polygon><polygon points="323.93 147.12 329.68 143.81 339.59 142.94 333.84 146.25 323.93 147.12" style="fill:#fff;opacity:0.2"></polygon><path d="M342.08,168.6c.05-2,.13-4,.15-6s.08-4,.08-6v-.07l0-.06-4.12-5.18L334,146.13l-.07-.08h-.1c-3.3.33-6.6.67-9.89,1.06,3.27-.19,6.55-.42,9.82-.67l4.05,5.11,4.11,5.1c0,2,0,4,0,5.94S342.05,166.6,342.08,168.6Z" style="fill:#0D6EFD"></path><polygon points="339.59 142.94 342.01 143.42 348.89 152.03 347.87 153.28 339.59 142.94" style="fill:#0D6EFD"></polygon><polygon points="339.59 142.94 342.01 143.42 348.89 152.03 347.87 153.28 339.59 142.94" style="fill:#fff;opacity:0.30000000000000004"></polygon><polygon points="348.87 162.03 347.84 165.3 347.87 153.28 348.89 152.03 348.87 162.03" style="fill:#0D6EFD"></polygon><polygon points="348.87 162.03 347.84 165.3 347.87 153.28 348.89 152.03 348.87 162.03" style="fill:#fff;opacity:0.1"></polygon><path d="M347.84,165.3c.08-2,.15-4,.18-6s0-4,.07-6v-.08l0-.06q-2.07-2.58-4.17-5.14c-1.4-1.7-2.83-3.39-4.28-5.05,1.31,1.77,2.65,3.53,4,5.28s2.72,3.47,4.1,5.19l-.05-.14c0,2,0,4,.05,6S347.77,163.29,347.84,165.3Z" style="fill:#0D6EFD"></path><polygon points="324.48 149.62 331.57 149.46 338.52 158.25 338.59 167.49 331.72 168.41 339 167.77 339.03 158.06 331.76 148.98 324.48 149.62" style="fill:#fff;opacity:0.1"></polygon><path d="M304.93,179.22a2.23,2.23,0,0,1-2.27-.23,7.08,7.08,0,0,1-3.2-5.56,2.27,2.27,0,0,1,1-2.07l27.26-15.66a2.21,2.21,0,0,1,2.26.23,7.08,7.08,0,0,1,3.2,5.56,2.24,2.24,0,0,1-.94,2.07Z" style="fill:#0D6EFD"></path><path d="M300.41,171.36l26-15c1.25-.71.5-2.33,1.08-2.78s4,.37,5.95,3.3,1.86,6.5,1.14,6.91-1.92-.57-3.16.16l-26.5,15.22a2.23,2.23,0,0,1-2.27-.23,7.08,7.08,0,0,1-3.2-5.56A2.27,2.27,0,0,1,300.41,171.36Z" style="fill:#0D6EFD"></path><path d="M302.18,177.87c.7-.49,1.54-.87,2.29-1.29l5.84-3.3c5.69-3.21,11.51-6.2,17-9.69l3-2c.81-.53,1.92-.29,2.53-1.24a2.65,2.65,0,0,0,.32-1.49,6.59,6.59,0,0,0-1.34-3.69,8.29,8.29,0,0,1,1.55,1.71c2,2.93,1.86,6.5,1.14,6.91s-1.92-.57-3.16.16l-26.5,15.22a2.23,2.23,0,0,1-2.27-.23,4.92,4.92,0,0,1-.91-.7A2.13,2.13,0,0,1,302.18,177.87Z" style="opacity:0.2"></path><path d="M299.46,173.43a2.27,2.27,0,0,1,1-2.07,2.21,2.21,0,0,1,2.26.23,7.08,7.08,0,0,1,3.2,5.56,2,2,0,0,1-3.21,1.84A7.08,7.08,0,0,1,299.46,173.43Z" style="fill:#0D6EFD"></path><polygon points="295.26 190.68 294.81 189.62 302.09 188.98 305.17 189.81 295.26 190.68" style="fill:#0D6EFD"></polygon><polygon points="302.11 179.27 302.09 188.98 305.17 189.81 305.2 177.8 302.11 179.27" style="fill:#0D6EFD"></polygon><polygon points="302.11 179.27 302.09 188.98 305.17 189.81 305.2 177.8 302.11 179.27" style="fill:#fff;opacity:0.1"></polygon><polygon points="294.85 170.19 296.92 167.46 305.2 177.8 302.11 179.27 294.85 170.19" style="fill:#0D6EFD"></polygon><polygon points="294.85 170.19 296.92 167.46 305.2 177.8 302.11 179.27 294.85 170.19" style="fill:#fff;opacity:0.30000000000000004"></polygon><polygon points="287.56 170.83 287.01 168.33 296.92 167.46 294.85 170.19 287.56 170.83" style="fill:#0D6EFD"></polygon><polygon points="287.56 170.83 287.01 168.33 296.92 167.46 294.85 170.19 287.56 170.83" style="fill:#fff;opacity:0.2"></polygon><polygon points="287.01 168.33 286.99 180.51 295.26 190.68 294.81 189.62 287.54 180.54 287.56 170.83 287.01 168.33" style="fill:#0D6EFD"></polygon><polygon points="287.01 168.33 286.99 180.51 295.26 190.68 294.81 189.62 287.54 180.54 287.56 170.83 287.01 168.33" style="opacity:0.2"></polygon><polygon points="287.54 180.54 287.56 170.83 294.85 170.19 302.11 179.27 302.09 188.98 294.81 189.62 287.54 180.54" style="fill:#0D6EFD"></polygon><polygon points="287.54 180.54 287.56 170.83 294.85 170.19 302.11 179.27 302.09 188.98 294.81 189.62 287.54 180.54" style="opacity:0.1"></polygon><polygon points="305.17 189.81 310.93 186.5 310.95 174.49 305.2 177.8 305.17 189.81" style="fill:#0D6EFD"></polygon><polygon points="305.17 189.81 310.93 186.5 310.95 174.49 305.2 177.8 305.17 189.81" style="fill:#fff;opacity:0.1"></polygon><polygon points="296.92 167.46 305.2 177.8 310.95 174.49 302.68 164.15 296.92 167.46" style="fill:#0D6EFD"></polygon><polygon points="296.92 167.46 305.2 177.8 310.95 174.49 302.68 164.15 296.92 167.46" style="fill:#fff;opacity:0.30000000000000004"></polygon><polygon points="287.01 168.33 292.77 165.02 302.68 164.15 296.92 167.46 287.01 168.33" style="fill:#0D6EFD"></polygon><polygon points="287.01 168.33 292.77 165.02 302.68 164.15 296.92 167.46 287.01 168.33" style="fill:#fff;opacity:0.2"></polygon><path d="M305.17,189.81c.05-2,.13-4,.15-6s.07-4,.08-6v-.07l0-.06-4.12-5.18-4.16-5.15-.06-.08h-.1c-3.3.33-6.6.67-9.9,1.06,3.28-.19,6.55-.43,9.83-.67l4.05,5.11,4.11,5.1c0,2,0,4,.05,5.93S305.13,187.81,305.17,189.81Z" style="fill:#0D6EFD"></path><polygon points="302.68 164.15 305.09 164.63 311.98 173.24 310.95 174.49 302.68 164.15" style="fill:#0D6EFD"></polygon><polygon points="302.68 164.15 305.09 164.63 311.98 173.24 310.95 174.49 302.68 164.15" style="fill:#fff;opacity:0.30000000000000004"></polygon><polygon points="311.96 183.24 310.93 186.5 310.95 174.49 311.98 173.24 311.96 183.24" style="fill:#0D6EFD"></polygon><polygon points="311.96 183.24 310.93 186.5 310.95 174.49 311.98 173.24 311.96 183.24" style="fill:#fff;opacity:0.1"></polygon><path d="M310.93,186.5c.08-2,.15-4,.18-6s0-4,.07-6v-.08l-.05-.06q-2.07-2.58-4.17-5.14c-1.41-1.7-2.83-3.39-4.28-5.06q2,2.67,4,5.28c1.35,1.74,2.72,3.48,4.1,5.2l0-.14c0,2,0,4,0,6S310.85,184.5,310.93,186.5Z" style="fill:#0D6EFD"></path><polygon points="287.56 170.83 294.65 170.67 301.6 179.46 301.68 188.7 294.81 189.62 302.09 188.98 302.11 179.27 294.85 170.19 287.56 170.83" style="fill:#fff;opacity:0.1"></polygon></g><path d="M313.5,167.59c1.56,1.8,2.28,5.47.21,6.64l-1.73.94,0,8,.62.22c4.06-2.17,8.32-3.26,11.17-4.87s6.09-2.73,7.06-5,2.15-11,2.09-12.69-2.88-3.28-7.67-4.34-6-.5-7,.47a4.61,4.61,0,0,0-1.28,1.77,6.73,6.73,0,0,0-3.39.57,4.13,4.13,0,0,0-1.61,2.74,6.49,6.49,0,0,0-2.74,1.23c-1.28,1-.93,3.57-.93,3.57l1.26-.73c.75-.41,2.71,0,3.91,1.4l0,.05Z" style="fill:#ffbda7"></path><g id="freepik--Chest--inject-25"><path d="M231.63,125s-18.1-.76-29.25,1.67c-6.35,1.38-12.49,2.88-12.49,2.88-2.6,3.24-14,16.36-13,23.38.93,6,10.22,29.55,11.22,37.21-5.61,10.37-12.22,29.39-12.22,29.39,15.47,14.58,72.95,16.58,83.14-.44a99.13,99.13,0,0,0-3.15-22.62c-.13-8,.41-14.5.63-18.88,0,0,6.92-3.22,8.31-13.8.88-6.65-1.55-13.17-10.12-23.68s-13.05-14.49-13.05-14.49Z" style="fill:#0D6EFD"></path><path d="M238,176.26c-7.81,8.82-26.44,5.14-31.19-4.73C208.62,186.68,234.27,187.87,238,176.26Z" style="opacity:0.2"></path><path d="M188.21,226.3a175.56,175.56,0,0,1,9.94-29.49,14.35,14.35,0,0,0,.72-9.95c-5.79-19.57-9.49-34.46-9.49-34.46l-12.47.32h0c.71,5.61,10.23,29.69,11.25,37.45-5.61,10.37-12.22,29.39-12.22,29.39A33.94,33.94,0,0,0,188.21,226.3Z" style="fill:#fff;opacity:0.30000000000000004"></path></g><g id="freepik--Head--inject-25"><path d="M224.82,111.91a63.41,63.41,0,0,0,13.11-8.11c2.27-1.87,2.92-4.71,3.64-7.43a20.59,20.59,0,0,1,3.81-7.82c1.92-2.38,4.06-3.06,5.2-6a22.94,22.94,0,0,0,1.22-8.93A26.39,26.39,0,0,0,249.65,66a20.44,20.44,0,0,0-11.57-10.74,37.59,37.59,0,0,0-19.25-1.44c-10.31,2.09-14.82,6.52-17.45,13.12-9.29,5.54-7.81,18.37-7.07,21.21a44,44,0,0,0,8.76,16.46c3.16,3.51,5.7,6.39,7.26,10.9.5,1.46-.14,2.22,1.77,2.15s4.08-1.61,5.76-2.41C220.18,114.12,222.5,113,224.82,111.91Z" style="fill:#263238"></path><path d="M247.11,62.73a10.64,10.64,0,0,1,14.68,4.69A10.39,10.39,0,0,0,255,63.74a14.09,14.09,0,0,0-7.66,1.31c1.92-.36,3.83.73,5.28,2A16.06,16.06,0,0,1,257.78,77a13.31,13.31,0,0,0-3.15-5,16.33,16.33,0,0,0-4.39-4c-.84-.45-1.76-.75-2.56-1.26a3.15,3.15,0,0,1-1.6-2.25" style="fill:#263238"></path><path d="M208,121c.67-5.48,1.35-13.91,1.35-13.91-1,1.35-6.39,3.26-10.17-1.93-4.35-6-3.72-10.28-.77-13.2,3.38-3.33,9.35-2.55,11.89,2.64.32.65,2.32-.37,2.63-.63A4.92,4.92,0,0,0,214.33,91a5.12,5.12,0,0,0-.36-3.26,3.21,3.21,0,0,1-.16-2.66,11.58,11.58,0,0,1,1.86-2.66,14.72,14.72,0,0,0,3.06-7.92,13.3,13.3,0,0,1,.58-4.28,6,6,0,0,1,5-3.28,13.13,13.13,0,0,1,6.08,1.22,12,12,0,0,0,3.22,1,5.2,5.2,0,0,0,3.2-.73c1.58-1,2.72-2.85,4.57-3A4.76,4.76,0,0,1,245,67.18c2.6,2.59,3.93,6.09,4.94,9.54,1.63,5.52,1.81,11.42,1.61,17.13-.48,13.68-3.6,20-8,22.06-2.64,1.23-5.12,2-10.19,1.69,0,0-.18,1.71-.44,4.24-.19,1.85.1,2.92,2.45,3.41,2.25,3,7.82,10.35-5.46,11-17.13.85-25.74-7.46-27.38-9.56C207,125.63,207.55,124.39,208,121Z" style="fill:#ffbda7"></path><path d="M216.46,94.67c.5,2.76-.85,5.93-3.47,7a10.71,10.71,0,0,0,1.21-4.88,5.86,5.86,0,0,0-2.06-4.45c-.53-.41-1.14-.7-1.66-1.11a2.4,2.4,0,0,1-1-1.65c-.17-3.1,3.23-.75,4.12.1A9.35,9.35,0,0,1,216.46,94.67Z" style="fill:#263238"></path><path d="M228,102.35l7.15,2.13a3.67,3.67,0,0,1-4.58,2.64A3.9,3.9,0,0,1,228,102.35Z" style="fill:#b16668"></path><path d="M228.47,104a4.1,4.1,0,0,1,4.16,3.12,3.55,3.55,0,0,1-2.07,0,3.84,3.84,0,0,1-2.64-3.06A4.85,4.85,0,0,1,228.47,104Z" style="fill:#f0997a"></path><path d="M248.34,80.63l-5.71-.51a2.75,2.75,0,0,1,3-2.63A3,3,0,0,1,248.34,80.63Z" style="fill:#263238"></path><path d="M221.32,81.49,227,80.26A2.8,2.8,0,0,0,223.64,78,3.06,3.06,0,0,0,221.32,81.49Z" style="fill:#263238"></path><path d="M242,87.92a2.46,2.46,0,0,0,2.25,2.57,2.3,2.3,0,0,0,2.52-2.16,2.45,2.45,0,0,0-2.25-2.56A2.29,2.29,0,0,0,242,87.92Z" style="fill:#263238"></path><path d="M224.71,88.67A2.45,2.45,0,0,0,227,91.23a2.3,2.3,0,0,0,2.53-2.15,2.48,2.48,0,0,0-2.25-2.57A2.32,2.32,0,0,0,224.71,88.67Z" style="fill:#263238"></path><polygon points="244.49 95.62 236.63 99.18 234.24 83.55 244.49 95.62" style="fill:#f0997a"></polygon><path d="M233.28,117.6c-9.11-.75-17.86-3.56-20-7.66a7.59,7.59,0,0,0,3.95,5.73c5.23,2.94,15.8,4.17,15.8,4.17Z" style="fill:#f0997a"></path></g><g id="freepik--dumbbell--inject-25"><polygon points="135.44 257.93 135.96 256.9 128.74 255.77 125.61 256.39 135.44 257.93" style="fill:#0D6EFD"></polygon><polygon points="129.38 246.08 128.74 255.77 125.61 256.39 126.41 244.4 129.38 246.08" style="fill:#0D6EFD"></polygon><polygon points="129.38 246.08 128.74 255.77 125.61 256.39 126.41 244.4 129.38 246.08" style="fill:#fff;opacity:0.1"></polygon><polygon points="137.25 237.52 135.37 234.66 126.41 244.4 129.38 246.08 137.25 237.52" style="fill:#0D6EFD"></polygon><polygon points="137.25 237.52 135.37 234.66 126.41 244.4 129.38 246.08 137.25 237.52" style="fill:#fff;opacity:0.30000000000000004"></polygon><polygon points="144.47 238.65 145.19 236.19 135.37 234.66 137.25 237.52 144.47 238.65" style="fill:#0D6EFD"></polygon><polygon points="144.47 238.65 145.19 236.19 135.37 234.66 137.25 237.52 144.47 238.65" style="fill:#fff;opacity:0.2"></polygon><polygon points="145.19 236.19 144.39 248.35 135.44 257.93 135.96 256.9 143.83 248.34 144.47 238.65 145.19 236.19" style="fill:#0D6EFD"></polygon><polygon points="145.19 236.19 144.39 248.35 135.44 257.93 135.96 256.9 143.83 248.34 144.47 238.65 145.19 236.19" style="opacity:0.2"></polygon><polygon points="143.83 248.34 144.47 238.65 137.25 237.52 129.38 246.08 128.74 255.77 135.96 256.9 143.83 248.34" style="fill:#0D6EFD"></polygon><polygon points="143.83 248.34 144.47 238.65 137.25 237.52 129.38 246.08 128.74 255.77 135.96 256.9 143.83 248.34" style="opacity:0.1"></polygon><polygon points="125.61 256.39 120.09 252.7 120.89 240.71 126.41 244.4 125.61 256.39" style="fill:#0D6EFD"></polygon><polygon points="125.61 256.39 120.09 252.7 120.89 240.71 126.41 244.4 125.61 256.39" style="fill:#fff;opacity:0.1"></polygon><polygon points="135.37 234.66 126.41 244.4 120.89 240.71 129.85 230.96 135.37 234.66" style="fill:#0D6EFD"></polygon><polygon points="135.37 234.66 126.41 244.4 120.89 240.71 129.85 230.96 135.37 234.66" style="fill:#fff;opacity:0.30000000000000004"></polygon><polygon points="145.19 236.19 139.68 232.5 129.85 230.96 135.37 234.66 145.19 236.19" style="fill:#0D6EFD"></polygon><polygon points="145.19 236.19 139.68 232.5 129.85 230.96 135.37 234.66 145.19 236.19" style="fill:#fff;opacity:0.2"></polygon><path d="M126.14,250.4c.16-2,.33-3.94.46-5.91l4.45-4.81,4.39-4.82q4.88.7,9.75,1.34c-3.26-.61-6.52-1.18-9.79-1.73l-.1,0-.07.08-4.51,4.85-4.46,4.88-.05.06v.07c-.13,2-.22,4-.33,6s-.17,4-.26,6C125.78,254.39,126,252.4,126.14,250.4Z" style="fill:#0D6EFD"></path><polygon points="129.85 230.96 127.41 231.27 119.95 239.39 120.89 240.71 129.85 230.96" style="fill:#0D6EFD"></polygon><polygon points="129.85 230.96 127.41 231.27 119.95 239.39 120.89 240.71 129.85 230.96" style="fill:#fff;opacity:0.30000000000000004"></polygon><polygon points="119.29 249.37 120.09 252.7 120.89 240.71 119.95 239.39 119.29 249.37" style="fill:#0D6EFD"></polygon><polygon points="119.29 249.37 120.09 252.7 120.89 240.71 119.95 239.39 119.29 249.37" style="fill:#fff;opacity:0.1"></polygon><path d="M120.09,252.7c.06-2,.13-4,.23-6s.23-4,.35-6v-.08l0-.05c1.5-1.63,3-3.24,4.52-4.85s3-3.18,4.61-4.75c-1.43,1.69-2.88,3.35-4.35,5s-3,3.27-4.45,4.9l.06-.14c-.15,2-.27,4-.45,6S120.3,250.7,120.09,252.7Z" style="fill:#0D6EFD"></path><polygon points="144.47 238.65 137.41 238.01 129.88 246.3 129.17 255.52 135.96 256.9 128.74 255.77 129.38 246.08 137.25 237.52 144.47 238.65" style="fill:#fff;opacity:0.1"></polygon><path d="M162,269.53a2.27,2.27,0,0,0,2.28-.08,7.09,7.09,0,0,0,3.57-5.33A2.23,2.23,0,0,0,167,262L140.88,244.5a2.27,2.27,0,0,0-2.28.07A7.08,7.08,0,0,0,135,249.9a2.26,2.26,0,0,0,.8,2.14Z" style="fill:#0D6EFD"></path><path d="M167,262,142.07,245.3c-1.19-.8-.34-2.36-.89-2.85s-4,.09-6.16,2.88-2.3,6.36-1.61,6.82,2-.44,3.14.37l25.4,17a2.27,2.27,0,0,0,2.28-.08,7.09,7.09,0,0,0,3.57-5.33A2.23,2.23,0,0,0,167,262Z" style="fill:#0D6EFD"></path><path d="M164.78,268.37a25.15,25.15,0,0,0-2.19-1.45L157,263.23c-5.45-3.59-11-7-16.32-10.83-.78-.57-1.56-1.16-2.9-2.16-.78-.58-1.9-.42-2.45-1.41a2.58,2.58,0,0,1-.21-1.51,6.55,6.55,0,0,1,1.58-3.58,8.25,8.25,0,0,0-1.66,1.59c-2.17,2.79-2.3,6.36-1.61,6.82s2-.44,3.14.37l25.4,17a2.27,2.27,0,0,0,2.28-.08,5.11,5.11,0,0,0,1-.63A2,2,0,0,0,164.78,268.37Z" style="opacity:0.2"></path><path d="M167.8,264.12A2.23,2.23,0,0,0,167,262a2.27,2.27,0,0,0-2.28.07,7.13,7.13,0,0,0-3.57,5.33,2.31,2.31,0,0,0,.8,2.14,2.27,2.27,0,0,0,2.28-.08A7.09,7.09,0,0,0,167.8,264.12Z" style="fill:#0D6EFD"></path><polygon points="170.81 281.61 171.34 280.59 164.11 279.46 160.99 280.07 170.81 281.61" style="fill:#0D6EFD"></polygon><polygon points="164.76 269.76 164.11 279.46 160.99 280.07 161.78 268.08 164.76 269.76" style="fill:#0D6EFD"></polygon><polygon points="164.76 269.76 164.11 279.46 160.99 280.07 161.78 268.08 164.76 269.76" style="fill:#fff;opacity:0.1"></polygon><polygon points="172.63 261.21 170.74 258.34 161.78 268.08 164.76 269.76 172.63 261.21" style="fill:#0D6EFD"></polygon><polygon points="172.63 261.21 170.74 258.34 161.78 268.08 164.76 269.76 172.63 261.21" style="fill:#fff;opacity:0.30000000000000004"></polygon><polygon points="179.85 262.34 180.57 259.88 170.74 258.34 172.63 261.21 179.85 262.34" style="fill:#0D6EFD"></polygon><polygon points="179.85 262.34 180.57 259.88 170.74 258.34 172.63 261.21 179.85 262.34" style="fill:#fff;opacity:0.2"></polygon><polygon points="180.57 259.88 179.76 272.04 170.81 281.61 171.34 280.59 179.21 272.03 179.85 262.34 180.57 259.88" style="fill:#0D6EFD"></polygon><polygon points="180.57 259.88 179.76 272.04 170.81 281.61 171.34 280.59 179.21 272.03 179.85 262.34 180.57 259.88" style="opacity:0.2"></polygon><polygon points="179.21 272.03 179.85 262.34 172.63 261.21 164.76 269.76 164.11 279.46 171.34 280.59 179.21 272.03" style="fill:#0D6EFD"></polygon><polygon points="179.21 272.03 179.85 262.34 172.63 261.21 164.76 269.76 164.11 279.46 171.34 280.59 179.21 272.03" style="opacity:0.1"></polygon><polygon points="160.99 280.07 155.47 276.38 156.26 264.39 161.78 268.08 160.99 280.07" style="fill:#0D6EFD"></polygon><polygon points="160.99 280.07 155.47 276.38 156.26 264.39 161.78 268.08 160.99 280.07" style="fill:#fff;opacity:0.1"></polygon><polygon points="170.74 258.34 161.78 268.08 156.26 264.39 165.22 254.65 170.74 258.34" style="fill:#0D6EFD"></polygon><polygon points="170.74 258.34 161.78 268.08 156.26 264.39 165.22 254.65 170.74 258.34" style="fill:#fff;opacity:0.30000000000000004"></polygon><polygon points="180.57 259.88 175.05 256.19 165.22 254.65 170.74 258.34 180.57 259.88" style="fill:#0D6EFD"></polygon><polygon points="180.57 259.88 175.05 256.19 165.22 254.65 170.74 258.34 180.57 259.88" style="fill:#fff;opacity:0.2"></polygon><path d="M161.52,274.09c.16-2,.32-3.95.46-5.92l4.45-4.81,4.38-4.82c3.25.47,6.5.93,9.76,1.34-3.26-.61-6.53-1.18-9.8-1.73h-.1l-.07.07-4.5,4.85L161.63,268l0,.05v.07c-.13,2-.23,4-.33,6s-.18,4-.27,6C161.16,278.08,161.37,276.09,161.52,274.09Z" style="fill:#0D6EFD"></path><polygon points="165.22 254.65 162.79 254.96 155.33 263.07 156.26 264.39 165.22 254.65" style="fill:#0D6EFD"></polygon><polygon points="165.22 254.65 162.79 254.96 155.33 263.07 156.26 264.39 165.22 254.65" style="fill:#fff;opacity:0.30000000000000004"></polygon><polygon points="154.66 273.05 155.47 276.38 156.26 264.39 155.33 263.07 154.66 273.05" style="fill:#0D6EFD"></polygon><polygon points="154.66 273.05 155.47 276.38 156.26 264.39 155.33 263.07 154.66 273.05" style="fill:#fff;opacity:0.1"></polygon><path d="M155.47,276.38c.05-2,.12-4,.23-6s.23-4,.34-6v-.08l0-.06c1.49-1.62,3-3.24,4.51-4.84s3.06-3.19,4.62-4.75q-2.14,2.52-4.35,5c-1.48,1.64-3,3.28-4.45,4.9l.06-.13c-.16,2-.28,4-.46,6S155.68,274.39,155.47,276.38Z" style="fill:#0D6EFD"></path><polygon points="179.85 262.34 172.79 261.7 165.25 269.99 164.54 279.2 171.34 280.59 164.11 279.46 164.76 269.76 172.63 261.21 179.85 262.34" style="fill:#fff;opacity:0.1"></polygon></g><g id="freepik--Arm--inject-25"><path d="M143.88,241.33c.71-5.66,2.91-25.07,3.77-31.09,1.12-7.9,1.39-12.33,2.39-17.24,1.13-5.49,6.7-19.1,11.71-32.16,6.47-16.87,8.53-21.54,12.85-25.2,4.93-4.18,10.37-5.34,18-6.72,7,7.34,1.6,30.44-2.15,37.2-4.23,7.63-15.39,27.11-15.39,27.11s-4.5,15.29-8.22,27.88c-2.13,7.23-4.44,14.48-4.44,14.48-.88,3.51-3.08,8-2.25,11.78s2.12,8.14,2.12,8.14l-1.9,2.07-2.67-1.81s-1.89-.23-3.66,2.43c-1.17,1.75-1.43,5.07-.6,5.63L155.2,265l-.52,7.82a27.43,27.43,0,0,1-4.26,1.19c-2.15.39-2.19-.39-3.89-1.49s-2.68-.19-4.11-1.17-1.67-2.66-2.62-3.13a4.51,4.51,0,0,1-2.54-3.14c-.58-2-.43-7-.52-9.63S143.32,245.72,143.88,241.33Z" style="fill:#ffbda7"></path></g></g></g></g><g id="freepik--speech-bubble--inject-25"><g id="freepik--speech-bubble--inject-25"><g id="freepik--speech-bubble--inject-25"><path d="M332.35,37.15,275,70.31c-.63.36-1.15,1.25-1.15,3V103.5a2.47,2.47,0,0,0,1.16,2l4.55,2.59a2.55,2.55,0,0,0,2.3,0l57.32-33.15a2.52,2.52,0,0,0,1.14-2V41.71a2.5,2.5,0,0,0-1.15-2l-4.56-2.59A2.58,2.58,0,0,0,332.35,37.15Z" style="fill:#0D6EFD"></path><path d="M332.35,37.15,275,70.31c-.63.36-1.15,1.25-1.15,3V103.5a2.47,2.47,0,0,0,1.16,2l4.55,2.59a2.55,2.55,0,0,0,2.3,0l57.32-33.15a2.52,2.52,0,0,0,1.14-2V41.71a2.5,2.5,0,0,0-1.15-2l-4.56-2.59A2.58,2.58,0,0,0,332.35,37.15Z" style="fill:#fff;opacity:0.30000000000000004"></path><path d="M281.9,108.06a2.62,2.62,0,0,1-2.3,0l-4.55-2.6a2.41,2.41,0,0,1-1.16-2V73.28a4.24,4.24,0,0,1,.41-2.14l6.79,3.92a2.15,2.15,0,0,0-.34,1.12V107.4C280.75,108.09,281.23,108.45,281.9,108.06Z" style="fill:#0D6EFD"></path><path d="M270.75,97.38c-.71-.43-6.2-3.52-6.37-3.62a1.08,1.08,0,0,1-.23-1.64L273.89,81l6.86,3.93L270.56,95.77A1.08,1.08,0,0,0,270.75,97.38Z" style="fill:#0D6EFD"></path><path d="M270.75,97.38c-.71-.43-6.2-3.52-6.37-3.62a1.08,1.08,0,0,1-.23-1.64L273.89,81l6.86,3.93L270.56,95.77A1.08,1.08,0,0,0,270.75,97.38Z" style="fill:#fff;opacity:0.30000000000000004"></path><path d="M339.22,41.05,281.9,74.2a2.53,2.53,0,0,0-1.15,2v8.7L270.56,95.77a1,1,0,0,0,.65,1.75l9.54-.69h0V107.4c0,.73.52,1,1.15.66l57.32-33.15a2.52,2.52,0,0,0,1.14-2V41.71C340.36,41,339.85,40.68,339.22,41.05Z" style="fill:#fff"></path><path d="M339.57,41.75V72.93a1.78,1.78,0,0,1-.75,1.3l-57.28,33.13V96l-.84.06-9.46.69a.26.26,0,0,1-.19-.16s0-.12.08-.26l10.2-10.89.21-.22v-9a1.79,1.79,0,0,1,.76-1.3l57.27-33.13m.16-.86a1,1,0,0,0-.51.16L281.9,74.2a2.53,2.53,0,0,0-1.15,2v8.7L270.56,95.77a1,1,0,0,0,.65,1.75l9.54-.69h0V107.4c0,.52.26.82.64.82a1,1,0,0,0,.51-.16l57.32-33.15a2.52,2.52,0,0,0,1.14-2V41.71c0-.52-.26-.82-.63-.82Z" style="fill:#0D6EFD"></path></g><path d="M287.34,93.74a1,1,0,0,1-.08-.5V93a1.84,1.84,0,0,1,.08-.6.64.64,0,0,1,.26-.32L289.47,91V80.76l-2,1.59c-.11.06-.2,0-.26-.24a2.91,2.91,0,0,1-.09-.75.82.82,0,0,1,.29-.62l3.12-2.67a.47.47,0,0,1,.34-.07.2.2,0,0,1,.16.22V90.1l1.56-.9c.12-.07.21-.06.26,0a1,1,0,0,1,.08.5V90a1.67,1.67,0,0,1-.08.6.59.59,0,0,1-.26.32l-5,2.86C287.48,93.83,287.4,93.83,287.34,93.74Z" style="fill:#37474f"></path><path d="M294.11,89.55V88.09q0-.5.66-.87l.33-.19c.43-.26.65-.22.65.11V88.6c0,.33-.22.62-.65.88l-.33.19Q294.11,90,294.11,89.55Z" style="fill:#37474f"></path><path d="M296.92,87.93V86.47c0-.33.22-.62.66-.88l.33-.19q.66-.37.66.12V87q0,.49-.66.87l-.33.19C297.14,88.3,296.92,88.26,296.92,87.93Z" style="fill:#37474f"></path><path d="M299.73,86.3V84.85a1.07,1.07,0,0,1,.66-.88l.33-.19q.66-.37.66.12v1.45c0,.34-.22.63-.66.88l-.33.19C300,86.67,299.73,86.64,299.73,86.3Z" style="fill:#37474f"></path><path d="M304.46,83.65a2.58,2.58,0,0,1-.09-.7,1,1,0,0,1,0-.35l3.44-8.54a15.35,15.35,0,0,0,.64-1.8,4.63,4.63,0,0,0,.17-1.2c0-.58-.14-1-.41-1.12a1.13,1.13,0,0,0-1.12.17,3.34,3.34,0,0,0-.86.69c-.22.27-.48.6-.77,1a1.78,1.78,0,0,1-.31.42c-.12.06-.25,0-.39-.2a1,1,0,0,1-.21-.58,2,2,0,0,1,.42-1,7.53,7.53,0,0,1,1.05-1.19,7,7,0,0,1,1.21-.92,2.16,2.16,0,0,1,2.15-.31c.54.31.81,1,.81,2a7,7,0,0,1-.14,1.38,14.18,14.18,0,0,1-.5,1.65c-.24.64-.6,1.52-1.08,2.63l-2.18,5.59,3.6-2.08c.12-.07.21-.07.26,0a.89.89,0,0,1,.08.49V80a1.58,1.58,0,0,1-.08.59.56.56,0,0,1-.26.32l-5.23,3C304.61,84,304.53,83.87,304.46,83.65Z" style="fill:#37474f"></path><path d="M311.46,79.53V78.08a1.05,1.05,0,0,1,.65-.88l.33-.19q.66-.37.66.12v1.45c0,.34-.22.63-.66.88l-.33.19C311.67,79.91,311.46,79.87,311.46,79.53Z" style="fill:#37474f"></path><path d="M314.27,77.91V76.46a1.06,1.06,0,0,1,.65-.88l.33-.19q.66-.39.66.12V77a1.07,1.07,0,0,1-.66.88l-.33.19C314.49,78.28,314.27,78.24,314.27,77.91Z" style="fill:#37474f"></path><path d="M317.08,76.29V74.83c0-.33.22-.62.66-.88l.33-.19c.43-.25.65-.21.65.12v1.46c0,.33-.22.62-.65.88l-.33.19Q317.08,76.79,317.08,76.29Z" style="fill:#37474f"></path><path d="M323.13,73.22a2.37,2.37,0,0,1-1.05.14c-.28,0-.41-.18-.41-.42a2.42,2.42,0,0,1,.22-.83c.14-.37.26-.59.36-.64a.67.67,0,0,1,.35,0,2.55,2.55,0,0,0,.73,0,2.68,2.68,0,0,0,.84-.33,3.79,3.79,0,0,0,1.3-1.36,4.42,4.42,0,0,0,.55-2.26c0-.87-.17-1.39-.51-1.57s-.83-.09-1.48.28l-.58.34c-.12.07-.21.06-.26,0a.93.93,0,0,1-.09-.5v-.26a1.46,1.46,0,0,1,.09-.58.59.59,0,0,1,.26-.32l.49-.28a3,3,0,0,0,1-.94,4.47,4.47,0,0,0,.57-1.24,4.38,4.38,0,0,0,.18-1.16,1.5,1.5,0,0,0-.35-1.1c-.23-.22-.62-.18-1.16.13a3.54,3.54,0,0,0-.75.58,8.2,8.2,0,0,0-.57.64,2,2,0,0,1-.31.36c-.1.06-.22,0-.36-.23A1.12,1.12,0,0,1,322,61a2.11,2.11,0,0,1,.79-1.29,7.52,7.52,0,0,1,1.62-1.28,2,2,0,0,1,2.09-.29c.51.32.77,1,.77,2.09a5,5,0,0,1-.42,2,5.86,5.86,0,0,1-1.08,1.7V64a1.3,1.3,0,0,1,1.32.52,3.39,3.39,0,0,1,.52,2.11,7.56,7.56,0,0,1-.41,2.49,7.13,7.13,0,0,1-1.13,2.07,6,6,0,0,1-1.62,1.41A6.18,6.18,0,0,1,323.13,73.22Z" style="fill:#37474f"></path><path d="M328.8,69.52V68.06q0-.5.66-.87l.33-.19c.44-.26.66-.22.66.11v1.46a1.07,1.07,0,0,1-.66.88l-.33.19Q328.8,70,328.8,69.52Z" style="fill:#37474f"></path><path d="M331.61,67.9V66.44c0-.33.22-.62.66-.88l.33-.19q.66-.37.66.12V67c0,.33-.22.62-.66.88l-.33.19Q331.61,68.4,331.61,67.9Z" style="fill:#37474f"></path><path d="M334.42,66.27V64.82a1.07,1.07,0,0,1,.66-.88l.33-.19q.66-.37.66.12v1.45c0,.34-.22.63-.66.88l-.33.19Q334.42,66.78,334.42,66.27Z" style="fill:#37474f"></path></g></g></svg>
